<svg xmlns="http://www.w3.org/2000/svg" width="64" height="64" viewBox="0 0 29.832 29.807"><path fill-rule="evenodd" clip-rule="evenodd" d="M13.817 29.807c-.847-.153-1.694-.304-2.54-.463-.176-.032-.345-.093-.602-.163 1.543-2.162 1.84-4.716 2.558-7.184.76 1.007 1.75 1.562 2.938 1.71 2.24.276 4.168-.44 5.777-1.99 1.627-1.568 2.445-3.557 2.81-5.748.295-1.77.357-3.54-.328-5.25-1.077-2.69-3.045-4.457-5.8-5.238-3.545-1.007-6.933-.542-9.982 1.602-3.183 2.236-4.585 6.242-3.496 9.756.416 1.34 1.156 2.435 2.457 3.072.623.306.883.188 1.062-.467.016-.06.024-.12.046-.176.304-.77.215-1.404-.31-2.128-.92-1.27-.82-2.76-.464-4.21.763-3.115 3.426-5.258 6.674-5.337a9.97 9.97 0 0 1 2.567.26c2.414.587 3.936 2.437 4.077 4.92.107 1.888-.188 3.724-.978 5.46-.408.895-.954 1.69-1.76 2.282-.593.435-1.253.666-1.995.657-1.655-.02-2.71-1.354-2.293-2.955.332-1.276.755-2.528 1.068-3.81.146-.592.223-1.236.157-1.838-.16-1.463-1.514-2.193-2.865-1.594-1.115.495-1.635 1.456-1.877 2.585-.228 1.064-.117 2.112.23 3.142.066.2.085.446.038.65-.61 2.645-1.27 5.278-1.84 7.932-.22 1.03-.24 2.103-.354 3.195-.105-.047-.27-.106-.422-.188C2.718 25.286-.18 20.582.006 14.176.213 7.116 5.738 1.152 12.748.172c.357-.05.712-.114 1.07-.172h2.187c.462.07.926.13 1.387.21 8.056 1.395 13.413 8.75 12.293 16.87-.813 5.894-5.396 10.93-11.183 12.27-.823.19-1.664.306-2.497.457h-2.188z"/></svg>