<svg xmlns="http://www.w3.org/2000/svg" width="64" height="64" viewBox="0 0 42.886 33.375"><path fill-rule="evenodd" clip-rule="evenodd" d="M42.886 5.715v.523c-.148.27-.247.585-.45.802-2.646 2.813-5.305 5.61-7.96 8.413l-11.372 12a.573.573 0 0 0-.147.234c-.076.298-.23.544-.44.765a1214.374 1214.374 0 0 0-3.974 4.196c-.29.31-.585.602-1.005.727h-.48c-.4-.11-.69-.368-.97-.664A16819.16 16819.16 0 0 0 .718 16.493C.41 16.168.115 15.845 0 15.4v-.523c.11-.438.385-.767.697-1.08.37-.37.722-.757 1.082-1.137.96-1.013 1.918-2.027 2.88-3.038.656-.69 1.445-.684 2.105.01l.135.143 10.08 10.637c.05.052.084.117.16.223.1-.125.157-.21.226-.282C23.586 13.79 29.806 7.226 36.022.66c.28-.297.57-.557.975-.66h.436c.395.102.685.35.958.643a635.758 635.758 0 0 0 3.746 3.954c.316.33.628.66.75 1.118z"/></svg>