<svg xmlns="http://www.w3.org/2000/svg" width="64" height="64" viewBox="0 0 15.989 16.005"><path fill-rule="evenodd" clip-rule="evenodd" d="M8.633 0c.52.108 1.047.187 1.557.33 3.573.992 6.017 4.438 5.784 8.135-.237 3.77-3.07 6.89-6.76 7.44-.17.025-.335.066-.5.1H7.27c-.36-.074-.727-.14-1.086-.224C2.42 14.888-.137 11.53.006 7.667c.14-3.773 2.99-6.96 6.76-7.563.196-.032.39-.07.586-.103h1.28zm6.174 8.037c.014-3.752-3.014-6.827-6.74-6.846C4.28 1.173 1.194 4.193 1.18 7.93c-.013 3.807 3.008 6.876 6.778 6.885 3.774.01 6.836-3.02 6.85-6.778z"/></svg>