<svg xmlns="http://www.w3.org/2000/svg" width="64" height="64" viewBox="0 0 30.817 32.035"><path fill-rule="evenodd" clip-rule="evenodd" d="M30.817 15.795c-.11 5.09-1.845 9.316-5.616 12.497-4.45 3.754-9.54 4.75-15.046 2.688-4.446-1.663-7.434-4.876-9.07-9.303C-.58 17.163-.34 12.675 1.91 8.44 4.75 3.094 9.26.16 15.375.004c3.347-.085 6.388 1 9.042 3.042 4.23 3.258 6.23 7.642 6.4 12.75zm-11.348-3.46c.434.12.48.455.408.86-.068.375-.124.753-.18 1.13-.04.28-.177.456-.46.546a.475.475 0 0 0-.27.292c-.186.793-.57 1.472-1.107 2.075-.092.104-.212.207-.254.332-.22.65.213 1.708.833 2.017.873.436 1.76.845 2.635 1.274.558.274 1.126.533 1.657.853 1.032.623 1.625 1.515 1.555 2.77-.004.074.015.15.028.277.088-.073.134-.1.168-.14 1.88-2.146 2.968-4.65 3.19-7.483.293-3.713-.73-7.052-3.25-9.832C21.35 3.913 17.494 2.563 13 3.462c-3.826.766-6.655 3.04-8.4 6.502-2.156 4.278-1.992 8.57.384 12.745.385.675.89 1.283 1.338 1.922l.114-.054c.006-.078.02-.156.02-.234-.04-.985.35-1.78 1.148-2.33.59-.408 1.23-.75 1.87-1.074.934-.47 1.897-.883 2.834-1.35.837-.417 1.038-1.65.513-2.4-.405-.582-.682-1.257-.99-1.903-.097-.2-.105-.403-.405-.462-.15-.03-.323-.273-.367-.45a8.373 8.373 0 0 1-.223-1.38c-.014-.172.07-.425.197-.515.203-.143.235-.28.196-.492-.146-.813-.034-1.61.2-2.39.414-1.374 1.478-2.17 2.944-2.255.13-.007.268-.078.384-.148.58-.355 1.202-.45 1.83-.213 1.59.602 2.604 1.73 2.868 3.43.094.606.015 1.238.015 1.923z"/></svg>