<svg xmlns="http://www.w3.org/2000/svg" width="64" height="64" viewBox="0 0 18.1 17.691"><g fill-rule="evenodd" clip-rule="evenodd"><path d="M18.1 7.652c-.068.133-.096.295-.186.344-1.71.95-3.428 1.89-5.15 2.822-.263.14-.56.092-.788-.094a32.46 32.46 0 0 1-1.27-1.1C8.48 7.597 6.26 5.566 4.032 3.54c-.566-.517-1.146-1.02-1.668-1.48-.25-.016-.35.107-.243.236C4.1 4.65 6.1 6.992 8.09 9.34c.722.853 1.473 1.683 2.115 2.556-.066.13-.082.21-.13.248-1.446 1.12-3.146 1.797-4.72 2.693-.6.342-1.164.79-1.89.855-.444-.328-.458-.85-.556-1.303-.623-2.872-1.214-5.75-1.817-8.624C.733 4.054.366 2.346.01.634-.064.28.305-.073.646.014c.202.048.41.083.6.165 5.457 2.362 10.91 4.728 16.362 7.1.184.08.33.25.492.372zM10.666 15.31c-.03.69-.05 1.383-.1 2.07-.008.11-.135.262-.24.3a.424.424 0 0 1-.366-.093 183.06 183.06 0 0 1-2.404-2.582c-.193-.21-.15-.578.08-.73.81-.526 1.592-1.108 2.53-1.4.085-.028.256.08.326.173a.71.71 0 0 1 .117.39c.01.624.004 1.25.004 1.872h.052z"/></g></svg>