<svg xmlns="http://www.w3.org/2000/svg" width="64" height="64" viewBox="0 0 28.258 28.255"><path fill-rule="evenodd" clip-rule="evenodd" d="M17.09 3.714c.156.103.264.206.39.25 2.11.754 1.438 1.026 3.51.005.433-.215.92-.328 1.392-.452.588-.155 1.105.028 1.552.42.157.138.296.298.437.453.524.576.62 1.256.387 1.962-.174.528-.437 1.03-.673 1.535-.147.314-.32.615-.51.977.256.777.555 1.548.972 2.32.456.155.923.29 1.373.47.45.182.91.366 1.323.62.832.512 1.166 1.378.954 2.364-.11.508-.458.858-.86 1.15-.688.502-1.473.8-2.278 1.05-.355.11-.592.36-.74.695-.086.19-.17.385-.25.58-.16.385-.318.772-.435 1.055-.065.502.216.755.365 1.063.215.44.44.876.633 1.325.403.932.29 1.776-.475 2.49-.153.144-.29.316-.47.417-.236.134-.5.268-.763.3a2.94 2.94 0 0 1-1.638-.266l-1.952-.924-2.25.93c-.188.595-.343 1.13-.53 1.652-.117.327-.27.644-.434.952-.523.995-1.446 1.353-2.687 1.04-.353-.09-.646-.3-.833-.603a14.274 14.274 0 0 1-.813-1.46c-.236-.502-.412-1.032-.633-1.597L9.08 23.57c-.623.033-.99.54-1.51.728-.46.164-.91.37-1.382.473-1.095.237-1.908-.254-2.505-1.13-.146-.214-.212-.524-.21-.79.002-.344.06-.706.182-1.024.25-.652.548-1.287.854-1.916.16-.335.218-.657.067-1.002-.055-.128-.127-.25-.18-.378-.564-1.367-.485-1.5-1.942-1.935-.59-.176-1.14-.533-1.667-.87-.494-.316-.735-.805-.78-1.414-.067-.94.284-1.64 1.09-2.1a7.853 7.853 0 0 1 1.147-.513c.458-.17.93-.3 1.395-.448.568-.67.674-1.534 1.11-2.246-.212-.434-.402-.805-.576-1.183-.204-.444-.442-.88-.582-1.346-.417-1.39-.145-2.147 1.313-2.88.317-.16.66-.207 1.02-.13.762.162 1.488.418 2.127.864.595.415 1.167.362 1.772.05.248-.128.516-.216.776-.316.416-.16.69-.436.83-.874.276-.87.603-1.718 1.183-2.442.784-.978 2.33-1.003 3.126-.023.26.32.478.692.645 1.07.197.447.313.928.476 1.39.068.195.163.38.23.53zm2.41 10.378c.088-2.79-2.44-5.3-5.373-5.357-2.502-.05-5.463 1.97-5.41 5.502.05 3.133 2.526 5.388 5.345 5.364 3.298-.025 5.563-2.812 5.44-5.508z"/></svg>