<svg xmlns="http://www.w3.org/2000/svg" width="64" height="64" viewBox="0 0 25.033 20.828"><path fill-rule="evenodd" clip-rule="evenodd" d="M4.184 20.828c-.024-.267-.01-.496-.013-.724-.002-.224 0-.448 0-.672v-.69-.673-.692c-.002-.223.005-.447-.005-.664-.07-.057-.14-.035-.207-.035-.622-.003-1.244-.003-1.867 0-.2 0-.398-.02-.59-.083-.84-.275-1.336-.854-1.483-1.725-.022-.14-.016-.286-.016-.43V4.06c0-.648.003-1.296 0-1.944 0-.29.04-.57.16-.837C.473.57 1.016.15 1.78.017c.085-.013.173-.012.26-.016h20.807c.182 0 .36.006.54.043a2.078 2.078 0 0 1 1.62 1.747c.014.117.025.235.025.353v12.384c0 .36-.062.708-.236 1.025-.396.718-1.007 1.098-1.83 1.124-.08.002-.162 0-.243 0H8.603c-.316 0-.216-.044-.438.177-1.27 1.267-2.536 2.535-3.804 3.803-.047.05-.096.095-.176.172zM3.137 5.195c.074.028.155.015.234.015H21.788c.036-.003.07-.01.1-.014.01-.024.017-.035.017-.046 0-.305.002-.61 0-.916 0-.022-.013-.044-.023-.076H3.238c-.036.003-.07.01-.1.015a6.01 6.01 0 0 0 0 1.022zm18.75 5.23H3.407c-.056 0-.112-.003-.168 0-.036 0-.072.01-.106.014-.007.026-.016.044-.016.06-.002.3-.002.6 0 .897 0 .023.015.045.025.08h18.492c.05 0 .1 0 .15-.002.034-.002.07-.01.103-.015.025-.164.025-.85 0-1.036zM11.473 8.336l.004-.352c0-.118.004-.236 0-.354-.005-.108.02-.22-.024-.338H3.237c-.036.002-.07.008-.118.014l-.005.343c0 .117-.004.235 0 .353.006.11-.022.223.026.334h8.333zm2.082-1.028c0 .174-.004.34 0 .51.006.17-.02.343.022.523h8.24c.023 0 .047-.007.08-.012.016-.115.008-.226.01-.336V7.64c-.003-.11.01-.222-.012-.34-.046-.003-.082-.006-.12-.007-1.24-.024-7.98-.013-8.22.016z"/></svg>