<svg xmlns="http://www.w3.org/2000/svg" width="64" height="64" viewBox="0 0 30.956 30.518"><g fill-rule="evenodd" clip-rule="evenodd"><path d="M16.437 0c.857.14 1.723.236 2.57.424 6.073 1.348 10.8 6.388 11.768 12.52 1.257 7.97-4.16 15.7-12.1 17.263-7.81 1.54-15.404-2.754-17.86-10.145C.45 18.958.323 17.775.084 16.63c-.026-.12-.056-.24-.083-.36v-1.99c.064-.45.12-.9.192-1.347A15.362 15.362 0 0 1 12.002.417C12.83.23 13.684.137 14.526 0h1.91zm-.945 3.048C8.628 3.042 3.087 8.518 3.074 15.315 3.062 21.995 8.63 27.48 15.45 27.5c6.84.022 12.43-5.463 12.44-12.205.01-6.746-5.554-12.24-12.398-12.247z"/><path d="M16.87 5.59c0 .342.015.658-.005.97-.02.286.065.41.37.46.922.155 1.796.446 2.536 1.052 1.132.925 1.726 2.123 1.845 3.603h-2.948c-.157-1.018-.595-1.804-1.798-1.997v2.762c0 1.034 0 1.035.96 1.383 1.543.56 2.73 1.504 3.1 3.172.49 2.215-.03 4.203-1.8 5.382-.637.423-1.427.615-2.25.955v1.623h-1.374c0-.457-.03-.898.01-1.333.037-.41-.145-.49-.504-.554-.675-.12-1.365-.25-2-.5-1.8-.706-2.732-2.118-3.042-3.983-.04-.244-.065-.49-.103-.773h2.754c.072 1.767 1.234 2.48 2.84 2.837.02-.173.043-.29.044-.407.003-1.26-.007-2.518.008-3.777.003-.292-.093-.407-.374-.477a32.93 32.93 0 0 1-2.353-.658c-.922-.305-1.73-.805-2.305-1.616-1.1-1.56-.735-3.95.807-5.25 1.098-.926 2.41-1.327 3.808-1.47.322-.034.438-.124.414-.445-.025-.31-.006-.626-.006-.96h1.365zM15.48 9.7c-.904.065-1.76.132-2.427.772-.63.604-.515 1.57.233 2.01.667.394 1.413.515 2.194.627V9.7zm.67 6.832l-.098.12.823 3.93c1.113-.18 1.79-.946 1.79-1.997.002-.49-.114-.98-.568-1.217-.624-.326-1.296-.56-1.948-.836z"/></g></svg>