<svg xmlns="http://www.w3.org/2000/svg" width="64" height="64" viewBox="0 0 25.02 26.164"><g fill-rule="evenodd" clip-rule="evenodd"><path d="M14.54 13.945c-.1.094-.176.162-.246.234-2.37 2.48-4.74 4.958-7.115 7.433a.923.923 0 0 0-.28.62c-.043.585-.114 1.17-.177 1.755-.015.13-.042.258-.066.412-1.54.54-3.082 1.078-4.623 1.615-.083.03-.17.05-.25.072-.018-.047-.04-.072-.033-.092.524-1.684 1.065-3.363 1.608-5.057.195-.027.374-.06.555-.08.546-.06 1.092-.125 1.64-.176.188-.016.307-.117.427-.244.858-.9 1.72-1.797 2.578-2.697L13.09 13c.09-.093.173-.188.27-.3l-.547-.584a.885.885 0 0 1-.26-.516.92.92 0 0 1 .268-.787c.44-.45.87-.906 1.305-1.36 2.234-2.34 4.47-4.677 6.703-7.013.082-.086.16-.176.25-.25a.812.812 0 0 1 1.077.004c.07.06.13.13.193.195.68.708 1.36 1.417 2.037 2.126.082.086.165.17.234.266a.875.875 0 0 1-.007 1.06c-.07.093-.156.177-.238.26l-7.87 8.233c-.073.076-.144.154-.222.223-.347.314-.785.316-1.132 0-.164-.15-.31-.318-.465-.48-.035-.036-.076-.07-.145-.133zM11.075 12.61c-.593.62-1.17 1.226-1.74 1.82-.264-.048-.265-.05-.478.01a6.357 6.357 0 0 1-1.742.257c-2.063-.008-3.797-.78-5.187-2.3C.86 11.23.256 9.848.058 8.282c-.06-.47-.068-.94-.05-1.41C.01 6.733 0 6.583.1 6.44c.302.24.537.536.8.804.26.262.51.527.764.793.263.273.525.548.787.822l.762.794.78.813c.344-.02 3.204-.8 4.764-1.295.03-.08.076-.174.1-.272.393-1.52.78-3.04 1.17-4.56.01-.038.01-.077.017-.15-1.28-1.35-2.586-2.7-3.87-4.054.067-.13.155-.104.228-.11 3.438-.298 6.28 1.91 7.254 4.907.19.586.3 1.19.36 1.805.02.215-.03.37-.18.523-.74.76-1.47 1.532-2.204 2.296a2.762 2.762 0 0 0-.754 1.48 2.7 2.7 0 0 0 .076 1.203c.032.113.07.222.117.37zM12.866 18.228c.174-.254 1.486-1.635 1.784-1.88.06.017.135.034.208.058 1.02.322 1.91.115 2.665-.643.27-.27.526-.55.79-.822.08-.083.165-.165.252-.25.153.052.234.175.33.274.89.926 1.775 1.855 2.66 2.783.634.662 1.266 1.326 1.9 1.986.146.15.302.29.455.434 1.573 1.46 1.454 4.066-.245 5.35a3.16 3.16 0 0 1-4.132-.262c-.214-.21-.395-.455-.603-.672-1.917-2.008-3.837-4.012-5.756-6.018-.105-.112-.207-.228-.308-.337zm8.47 5.55c.437.007.786-.175 1.063-.5.462-.55.456-1.405-.008-1.954a1.376 1.376 0 0 0-2.102-.02c-.475.538-.497 1.394-.044 1.952.28.343.64.53 1.09.52z"/></g></svg>