<svg xmlns="http://www.w3.org/2000/svg" width="64" height="64" viewBox="0 0 63.507 63.516"><g fill-rule="evenodd" clip-rule="evenodd"><path d="M63.507 31.81c.057 16.798-13.473 31.702-31.743 31.706C13.447 63.518-.104 48.53 0 31.612.11 13.706 14.922-.05 31.86 0c16.886.05 31.696 13.858 31.647 31.81zM31.78 57.158c14.434.033 25.438-11.994 25.392-25.467-.047-13.824-11.526-25.406-25.54-25.34-13.827.065-25.26 11.533-25.29 25.38C6.317 45.218 17.35 57.21 31.78 57.158z"/><path d="M31.62 31.985c.037.576.063 1.133.11 1.69.16 1.85-.357 3.462-1.653 4.812-.24.25-.448.533-.66.81-.04.048-.03.134-.052.25.193.017.396.093.566.046.84-.23 1.66-.162 2.5.006 1.374.276 2.758.503 4.138.753.697.127 1.39.143 2.09.002.765-.156 1.494-.373 2.09-.922.2-.184.452-.316.687-.46.052-.034.133-.02.23-.032.13.14.307.27.407.446a176.286 176.286 0 0 1 1.75 3.12c.28.513.19.88-.266 1.302-1.496 1.387-3.265 2.156-5.295 2.305-1.83.133-3.644.03-5.4-.584-.46-.163-.942-.274-1.398-.452-.733-.283-1.495-.357-2.27-.396-1.72-.088-3.358.152-4.844 1.096-.114.072-.254.104-.428.17-.146-.094-.375-.162-.48-.316-.666-.988-1.31-1.99-1.953-2.994-.223-.348-.15-.594.204-.895.59-.5 1.184-.99 1.752-1.512.626-.57 1.11-1.26 1.532-1.993.954-1.66 1.214-3.432.766-5.28-.262-1.08-.28-1.218-1.576-1.222-.63 0-1.26-.037-1.89-.06-.24-.01-.428-.18-.467-.362-.148-.69-.17-1.393.026-2.08.033-.11.182-.213.3-.27.12-.062.27-.073.406-.097.532-.09 1.12.13 1.595-.29.09-.597-.276-1.077-.434-1.605-.57-1.913-.788-3.833-.423-5.815a9.54 9.54 0 0 1 .686-2.2c.986-2.192 2.643-3.573 4.994-4.122 2.297-.537 4.587-.56 6.87.05 2.114.565 3.8 1.763 5.05 3.56.894 1.287 1.464 2.717 1.756 4.246.158.823.202 1.67.282 2.507.032.35-.27.666-.652.674-1.122.022-2.244.038-3.366.036-1.688-.002-1.69.068-2.015-1.668a6.832 6.832 0 0 0-.485-1.6c-.674-1.453-1.81-2.293-3.443-2.357a11.78 11.78 0 0 0-1.68.054c-.79.086-1.477.44-2.062.97-.48.435-.796.964-.927 1.612-.26 1.283-.117 2.516.45 3.688.275.564.616 1.1.942 1.64.233.384.58.59 1.043.59 1.333.005 2.666.007 4 .024.274.004.557.047.822.117.114.03.25.164.284.277.203.688.164 1.387.03 2.08a.453.453 0 0 1-.274.29c-.268.07-.55.103-.83.108-.84.02-1.683.01-2.523.04-.19.004-.38.13-.61.215z"/></g></svg>