<svg xmlns="http://www.w3.org/2000/svg" width="64" height="64" viewBox="0 0 31.919 32.049"><path fill-rule="evenodd" clip-rule="evenodd" d="M31.92 14.943v2.163c-.066.418-.138.835-.194 1.254-.844 6.294-5.78 11.75-11.958 13.19-.92.215-1.86.334-2.792.498H14.91c-.708-.11-1.425-.187-2.126-.334C4.427 29.964-1.016 22.19.16 13.7 1.063 7.19 6.1 1.77 12.547.396 13.327.228 14.123.13 14.912 0h2.065c.532.077 1.07.125 1.595.235 6.718 1.4 11.025 5.398 12.863 12.014.244.874.327 1.794.484 2.693zm-18.644-1.486c.024-.22.046-.43.07-.637.082-.74.402-1.34 1.027-1.763.84-.565 2.232-.445 2.812.24.59.696.533 2.004-.167 2.748-.333.354-.74.644-1.12.95-1.355 1.09-1.876 2.5-1.674 4.222h2.885c-.245-1.466.59-2.266 1.678-2.92.252-.15.493-.322.733-.494 2.354-1.683 2.363-5.042.016-6.736-.93-.67-1.98-.97-3.118-1.052-2.89-.21-5.143 1.48-5.708 4.333-.07.355-.077.724-.115 1.108h2.68zm3.972 10.568V21.38H14.63v2.645h2.618z"/></svg>