<svg xmlns="http://www.w3.org/2000/svg" width="64" height="64" viewBox="0 0 46.604 41.76"><path fill-rule="evenodd" clip-rule="evenodd" d="M28.54 33.72c.063 1.846.58 3.504.882 5.2.123.687.467 1.097 1.18 1.165.1.01.197.044.294.074.408.123.756.62.62.89-.19.378-.487.64-.934.668-.406.023-.813.04-1.218.04-4.068.003-8.136.006-12.203-.005-.503 0-1.02-.022-1.5-.15-.24-.066-.447-.37-.606-.605-.123-.18.13-.67.372-.747.287-.093.596-.125.883-.22.402-.134.713-.39.808-.825.24-1.09.52-2.177.685-3.28.374-2.503.672-2.546-2.096-2.536-3.356.01-6.712 0-10.07 0-.71 0-1.423-.01-2.133-.02-1.09-.016-1.942-.515-2.654-1.303-.417-.464-.72-.99-.763-1.624a31.59 31.59 0 0 1-.082-2.13C-.002 20.582 0 12.852 0 5.124 0 4.617.02 4.108.022 3.6.042 1.625 1.462.42 3.21.074a3.71 3.71 0 0 1 .605-.058C4.22.004 4.628 0 5.035 0H41.65c.505 0 1.017-.007 1.52.04.943.087 1.773.47 2.436 1.142.502.512.9 1.107.94 1.866.027.507.056 1.016.056 1.523.003 8.137.002 16.273 0 24.41 0 .406-.024.812-.038 1.218-.053 1.604-1.65 2.932-2.917 3.1-.702.094-1.42.085-2.13.086-3.56.008-7.12 0-10.678.01-.703.003-1.425-.106-2.3.327zm-5.21-3.705c5.58 0 11.163.005 16.745-.005.808-.002 1.616-.064 2.424-.12.345-.024.744-.467.78-.822.03-.303.07-.605.07-.908.002-7.714 0-15.428-.006-23.142 0-.302-.003-.628-.11-.9-.104-.264-.286-.546-.643-.572-.603-.042-1.208-.11-1.813-.112-2.74-.013-5.48-.006-8.22-.006-8.63 0-17.255-.004-25.883.005-.908.002-1.82.046-2.723.153-.22.026-.522.354-.578.592-.114.485-.113 1.005-.113 1.51-.006 7.307-.006 14.615-.002 21.923 0 .508.042 1.014.08 1.52.024.334.456.76.817.778.91.048 1.82.102 2.73.104 5.482.008 10.962.003 16.444.003z"/></svg>