<svg xmlns="http://www.w3.org/2000/svg" width="64" height="64" viewBox="0 0 19.652 19.685"><path fill-rule="evenodd" clip-rule="evenodd" d="M.002 11.884c0-1.965-.006-3.928.006-5.893A3.54 3.54 0 0 1 .15 4.96c.052-.168.264-.338.44-.402.257-.092.546-.117.822-.125.7-.02 1.403-.004 2.104-.03.556-.023.832-.153.873-.93.02-.42.016-.84.023-1.263.007-.35.004-.7.023-1.05C4.48.382 4.826.015 5.634.01 9.914-.003 14.192 0 18.47.006c.207 0 .413.07.618.115.2.043.56.39.562.574.005 1.26.002 2.518-.01 3.777 0 .202-.333.52-.58.536a14.51 14.51 0 0 1-1.46.043c-.478-.015-.78-.25-.802-.77-.006-.134-.07-.27-.123-.394-.022-.053-.1-.133-.13-.123-.122.037-.29.072-.342.164-.1.176-.144.387-.188.588-.07.31-.266.492-.566.53a3.72 3.72 0 0 1-.838.02c-.37-.037-.655-.2-.717-.625-.028-.2-.116-.395-.193-.586-.015-.034-.102-.06-.157-.06-.067 0-.176.012-.196.053a2.653 2.653 0 0 0-.232.574c-.15.642-.454.642-.896.677-.14.01-.28.002-.42-.006-.532-.028-.67-.147-.838-.73-.038-.132-.056-.272-.1-.403-.022-.063-.09-.164-.123-.158-.118.02-.288.044-.334.126-.102.178-.15.39-.2.592-.1.402-.38.56-.763.586-.14.01-.28.017-.42.01-.637-.02-.762-.124-1-.816-.046-.13-.087-.26-.147-.38-.03-.06-.095-.126-.154-.135-.05-.008-.137.045-.163.093-.094.182-.197.366-.246.56-.12.483-.43.683-.907.698-.278.008-.57.01-.827.1-.175.06-.323.252-.432.418-.07.105-.05.27-.064.41-.04.344-.002.697-.214 1.01-.228.334-.662.17-.93.408-.118.105-.16.213-.03.344.093.09.218.182.34.203.577.094.824.406.827 1.002.005.722-.158 1.25-1.006 1.298-.067.004-.142.186-.18.297-.015.037.062.137.117.16.19.08.393.133.586.207.29.11.432.342.46.64.02.208.02.42.017.63-.01.465-.174.813-.694.887-.133.02-.264.077-.385.138-.055.03-.13.13-.117.162.047.11.11.26.204.293.317.113.73.066.887.45.19.468.183.96.016 1.437a.583.583 0 0 1-.268.295c-.184.096-.404.12-.588.213-.11.057-.235.186-.246.29-.008.083.15.255.242.26.7.044 1.006.41.97 1.093-.022.42-.04.84-.075 1.257-.02.244-.314.527-.562.553a17.616 17.616 0 0 1-3.772-.008c-.234-.025-.546-.322-.575-.55-.045-.347-.097-.694-.098-1.042-.01-2.037-.006-4.07-.005-6.106z"/></svg>