<svg xmlns="http://www.w3.org/2000/svg" width="64" height="64" viewBox="0 0 80.522 53.682"><g fill-rule="evenodd" clip-rule="evenodd"><path d="M41.538 53.682h-2.554c-.09-.017-.18-.043-.272-.048-2.94-.155-5.786-.77-8.56-1.733-4.588-1.59-8.74-3.98-12.614-6.875C10.8 39.99 5.113 33.935.198 27.13c-.06-.08-.132-.15-.198-.227v-.125c.037-.032.083-.06.11-.1 1.893-2.692 3.97-5.237 6.176-7.68 3.56-3.945 7.42-7.565 11.727-10.694 3.265-2.372 6.72-4.408 10.48-5.906 2.823-1.125 5.733-1.916 8.763-2.23.576-.06 1.152-.112 1.73-.168h2.553c.09.017.18.043.27.048 2.942.155 5.79.774 8.567 1.735 4.58 1.586 8.727 3.978 12.594 6.865 6.744 5.035 12.437 11.096 17.355 17.902.06.08.132.152.197.228v.125c-.066.075-.14.146-.198.228-4.514 6.267-9.717 11.885-15.77 16.694-3.62 2.877-7.498 5.34-11.77 7.148-3.055 1.292-6.21 2.195-9.518 2.542-.575.06-1.15.112-1.728.168zM57.04 26.866c.022-9.21-7.466-16.762-16.652-16.793-9.34-.032-16.867 7.414-16.905 16.726-.038 9.23 7.464 16.78 16.7 16.81 9.303.027 16.835-7.453 16.857-16.744z"/><path d="M33.557 26.83c.006-3.705 3.016-6.71 6.714-6.703a6.71 6.71 0 0 1 6.694 6.725c-.006 3.706-3.016 6.712-6.714 6.703a6.712 6.712 0 0 1-6.693-6.725z"/></g></svg>