<svg xmlns="http://www.w3.org/2000/svg" width="64" height="64" viewBox="0 0 39.738 29.203"><g fill-rule="evenodd" clip-rule="evenodd"><path d="M1.698 29.203h1.06c.847-.274 1.723-.48 2.534-.835 2.158-.942 4.022-2.348 5.79-3.876 3.08-2.664 5.435-5.838 6.685-9.75 1.075-3.363.882-6.654-.813-9.782-1.365-2.52-3.4-4.21-6.27-4.78C10.31.1 9.925.06 9.545 0h-.988c-.112.023-.223.055-.336.068-3.066.348-5.454 1.785-6.874 4.55-1.53 2.98-1.166 5.94.51 8.746 1.225 2.045 2.99 3.316 5.47 3.423.475.02.96.13 1.412.28.58.19.816.6.667 1.184a3.9 3.9 0 0 1-.52 1.18c-.633.955-1.485 1.713-2.415 2.358-1.45 1.003-2.944 1.943-4.417 2.915C1.183 25.275.363 25.9 0 26.94v.707c.21.698.587 1.24 1.335 1.44.122.034.24.076.363.116zM39.738 11.596V9.828c-.022-.076-.056-.15-.063-.227-.153-1.646-.606-3.207-1.41-4.655C36.94 2.567 35.04.897 32.34.25 31.87.14 31.38.083 30.9 0h-1.062c-.297.046-.594.087-.89.14-3.108.573-5.417 2.216-6.606 5.182-1.187 2.962-.66 5.79 1.064 8.4 1.222 1.848 2.923 2.964 5.21 3.062.462.02.936.122 1.38.264.66.21.902.66.7 1.317-.126.41-.326.81-.567 1.163-.576.846-1.33 1.538-2.16 2.117-1.5 1.04-3.052 2-4.55 3.04-.603.42-1.184.902-1.668 1.45-.827.937-.48 2.687 1.074 3 .053.01.102.046.153.07h1.13c.04-.022.076-.05.12-.063.824-.268 1.696-.438 2.466-.816 3.51-1.716 6.48-4.13 8.915-7.185 1.81-2.27 3.165-4.782 3.8-7.642.14-.628.22-1.27.328-1.902z"/></g></svg>