<svg xmlns="http://www.w3.org/2000/svg" width="64" height="64" viewBox="0 0 26.994 26.151"><g fill-rule="evenodd" clip-rule="evenodd"><path d="M26.994 16.11c-.13-.006-.26-.02-.388-.02h-15.3c-.478 0-.492-.015-.492-.49v-5.108c0-.392.035-.426.433-.426 5.11 0 10.22 0 15.33-.002.14 0 .28-.016.418-.025v6.07zM26.994 6.012c-.42.002-.84.007-1.26.007h-14.82c-.035-.215-.096-.414-.096-.614-.005-1.802 0-3.604.004-5.406h16.172v6.012zM10.822 26.15c-.003-1.86-.008-3.723-.003-5.585 0-.14.075-.28.115-.42.103-.006.183-.013.262-.013h15.647c.05 0 .1.004.15.007v6.01H10.822zM0 10.16c.37-.03.74-.088 1.11-.09 1.843-.01 3.685-.004 5.528-.004.06 0 .117.01.202.017v6.008h-.326c-1.772 0-3.545.007-5.317-.004-.4-.002-.798-.062-1.197-.095v-5.83zM6.854 0l.007 5.888c0 .028-.012.057-.03.132h-.34c-1.75 0-3.504 0-5.257-.003-.15 0-.352.083-.41-.17-.006-.024-.09-.04-.135-.038-.23.003-.46.013-.688.02V0h6.854zM0 20.32c.23.008.458.018.688.023.04 0 .105-.002.112-.02.118-.308.38-.187.584-.188 1.692-.008 3.385-.005 5.077-.005h.362c.018.06.04.096.04.132l-.008 5.888H0v-5.83z"/></g></svg>