<svg xmlns="http://www.w3.org/2000/svg" width="64" height="64" viewBox="0 0 38.25 31.046"><path fill-rule="evenodd" clip-rule="evenodd" d="M5.552 31.046c-.144-.043-.288-.088-.432-.13-1.292-.383-2.135-1.49-2.162-2.87-.016-.802-.003-1.604-.004-2.407v-.508H0v-.505-9.42c0-2.17 1.143-3.806 3.174-4.59.162-.063.317-.255.388-.424A851.947 851.947 0 0 0 6.848 2.36C7.354 1.13 8.19.323 9.516.064c.038-.007.07-.042.104-.064h19.01c.06.028.12.067.183.082 1.18.26 2.01.946 2.478 2.056 1.105 2.62 2.208 5.243 3.293 7.872.147.356.336.57.71.712a4.6 4.6 0 0 1 2.954 4.31c.008 3.235.002 6.47 0 9.706 0 .11-.008.218-.015.384h-2.937c0 .827.006 1.598-.002 2.37-.005.455.023.92-.063 1.363-.22 1.116-.878 1.85-2.017 2.108-.063.014-.122.055-.183.083h-.913c-.088-.032-.174-.073-.265-.096-1.472-.372-2.396-1.552-2.398-3.074v-2.074-.642H8.797v.485c0 .872.01 1.743-.003 2.614-.02 1.378-.843 2.387-2.184 2.7-.078.02-.152.057-.228.086h-.83zm26.246-20.688c-.07-.178-.115-.305-.17-.427-.926-2.08-1.866-4.155-2.777-6.243-.23-.532-.594-.75-1.155-.75-5.712.005-11.422.006-17.134 0-.582 0-.95.235-1.185.775-.905 2.076-1.833 4.14-2.752 6.21-.06.133-.107.27-.17.437 8.464-.002 16.87-.002 25.345-.002zM9.31 16.478a3.068 3.068 0 0 0-3.076-3.094c-1.682-.01-3.085 1.41-3.074 3.11.01 1.66 1.39 3.036 3.05 3.04 1.72.008 3.103-1.355 3.1-3.057zm22.463 3.057c1.698.01 3.083-1.345 3.095-3.026a3.07 3.07 0 0 0-3.046-3.124c-1.684-.027-3.094 1.368-3.106 3.075-.012 1.673 1.374 3.066 3.057 3.075z"/></svg>