<svg xmlns="http://www.w3.org/2000/svg" width="64" height="64" viewBox="0 0 29.209 28.386"><path fill-rule="evenodd" clip-rule="evenodd" d="M4.858 9.89c1.235 0 2.47.005 3.704-.002 1.366-.007 2.385-.725 2.852-2.01.835-2.304 1.66-4.61 2.497-6.914.094-.257.2-.52.352-.743.205-.296.46-.293.668.006.146.21.25.458.337.702.825 2.276 1.64 4.555 2.46 6.834.515 1.432 1.502 2.126 3.035 2.127 2.425 0 4.85-.002 7.276.002.246 0 .497.005.736.055.453.094.562.398.285.762a2.29 2.29 0 0 1-.338.337c-2.144 1.85-4.302 3.685-6.427 5.555-.947.833-1.226 1.917-.873 3.126.718 2.463 1.463 4.918 2.19 7.38a3.3 3.3 0 0 1 .15.807c.014.404-.218.562-.59.41a3.497 3.497 0 0 1-.675-.39c-2.052-1.447-4.1-2.9-6.15-4.353-1.148-.813-2.36-.813-3.513.002-2.038 1.443-4.074 2.89-6.112 4.33-.177.126-.356.255-.55.352-.522.26-.79.084-.74-.49.017-.213.072-.428.133-.635.726-2.46 1.463-4.918 2.184-7.38.375-1.284.05-2.38-.96-3.256C4.67 14.67 2.544 12.842.42 11.01c-.055-.046-.126-.086-.158-.146-.104-.198-.314-.458-.254-.59.078-.172.374-.34.58-.344 1.422-.03 2.845-.015 4.268-.015V9.89z"/></svg>