<svg xmlns="http://www.w3.org/2000/svg" width="64" height="64" viewBox="0 0 27.814 24.533"><g fill-rule="evenodd" clip-rule="evenodd"><path d="M27.813 13.32c0 2.174.002 4.35-.003 6.525 0 .35-.018.7-.064 1.047-.04.293-.228.535-.508.613-1.282.357-2.572.69-3.858 1.033-2.234.592-4.47 1.19-6.706 1.773-.4.105-.82.146-1.235.202-.183.025-.41-.186-.428-.375-.024-.28-.06-.557-.06-.836-.005-4.42-.005-8.84-.002-13.26 0-.278.02-.56.053-.837.035-.305.23-.5.508-.604.198-.073.404-.12.606-.177 3.443-.953 6.887-1.908 10.33-2.86.27-.073.547-.126.82-.183.132-.03.43.22.447.375.038.346.094.69.096 1.037.007 2.18.003 4.354.003 6.528zM12.653 8.8c.048.257.14.526.142.796.01 4.7.008 9.398.006 14.098 0 .14-.022.28-.035.418-.02.23-.346.453-.614.418-.277-.037-.56-.06-.83-.127-3.33-.828-6.66-1.658-9.99-2.496-.27-.068-.528-.182-.788-.285a.734.734 0 0 1-.477-.63c-.036-.35-.062-.7-.062-1.05C0 15.522-.003 11.104.008 6.686c0-.412.084-.828.168-1.232.02-.09.2-.153.314-.208a.283.283 0 0 1 .202-.016c1.053.38 2.104.764 3.15 1.158.122.047.215.172.376.31.025.364.073.78.08 1.196.013.982-.003 1.965.01 2.947.016 1.18.478 1.63 1.807 1.778.06.008.126-.045.215-.08.188-.818.083-1.662.106-2.5.024-.84.033-1.68.054-2.52.004-.154.296-.35.47-.326.277.04.563.057.83.13 1.417.396 2.83.802 4.243 1.212.195.054.376.16.62.267zM26.973 3.625c-.192.178-.302.348-.453.404-.39.147-.796.247-1.198.358-3.292.91-6.59 1.807-9.875 2.736-1.04.295-2.048.316-3.078-.01-.93-.295-1.868-.553-2.802-.832-.158-.048-.193-.177-.108-.337.03-.057.074-.13.13-.15.257-.096.518-.188.782-.26 3.765-1.033 7.532-2.055 11.294-3.1.49-.137.943-.156 1.43 0 1.257.4 2.572.618 3.877 1.19zM17.93 1.12c-.278.417-.685.515-1.094.626-2.702.723-5.4 1.455-8.102 2.182-1.148.31-2.293.627-3.445.918-.264.066-.567.117-.82.052A83.832 83.832 0 0 1 1.242 4c-.118-.033-.206-.176-.31-.27.105-.303.4-.32.637-.387 3.765-1.07 7.535-2.13 11.304-3.19.688-.192 1.386-.218 2.067.005.99.324 2.046.463 2.99.963z"/></g></svg>