<svg xmlns="http://www.w3.org/2000/svg" width="64" height="64" viewBox="0 0 20.543 24.579"><g fill-rule="evenodd" clip-rule="evenodd"><path d="M0 18.528c.048-.03.06-.08.067-.128.04-.25.142-.476.258-.697a6.32 6.32 0 0 1 .778-1.116c.264-.315.542-.618.843-.898.782-.73 1.286-1.623 1.596-2.636.165-.542.272-1.098.347-1.66.13-1.002.156-2.01.155-3.02 0-.846-.005-1.692-.01-2.54a3.407 3.407 0 0 1 .17-1.12c.18-.53.49-.974.904-1.347.416-.374.896-.647 1.41-.864a8.593 8.593 0 0 1 1.604-.485c.042-.01.082-.022.12-.033C8.364.625 9.426-.017 10.33 0c.926.018 1.913.698 2.013 1.98.038.012.077.027.118.036.612.127 1.208.3 1.776.56.44.2.85.443 1.213.762.545.48.906 1.068 1.044 1.787.04.208.06.418.06.63-.004.468-.005.935-.005 1.4 0 .68-.006 1.358.004 2.037.01.747.054 1.493.152 2.234.097.723.25 1.433.513 2.117a5.68 5.68 0 0 0 1.395 2.116c.47.445.904.925 1.283 1.454.185.26.352.528.48.82.066.154.123.313.147.48.01.066.017.135.017.203-.002.336-.01.672-.01 1.008.002.402-.178.66-.562.78-.11.034-.23.05-.347.063-.105.01-.212.006-.317.006H1.284c-.187 0-.374.01-.557-.04-.066-.018-.134-.034-.196-.06-.31-.127-.472-.374-.47-.712l.003-.86c0-.06.008-.126-.063-.162v-.112zM13.502 21.534c.01.166-.008.32-.035.472-.164.896-.645 1.58-1.407 2.065a3.317 3.317 0 0 1-3.954-.318c-.55-.49-.884-1.1-.995-1.83a1.52 1.52 0 0 1-.014-.395c.047-.005.082-.01.118-.012.974-.024 6.084-.01 6.288.02z"/></g><g fill-rule="evenodd" clip-rule="evenodd"><path d="M0 18.528c.048-.03.06-.08.067-.128.04-.25.142-.476.258-.697a6.32 6.32 0 0 1 .778-1.116c.264-.315.542-.618.843-.898.782-.73 1.286-1.623 1.596-2.636.165-.542.272-1.098.347-1.66.13-1.002.156-2.01.155-3.02 0-.846-.005-1.692-.01-2.54a3.407 3.407 0 0 1 .17-1.12c.18-.53.49-.974.904-1.347.416-.374.896-.647 1.41-.864a8.593 8.593 0 0 1 1.604-.485c.042-.01.082-.022.12-.033C8.364.625 9.426-.017 10.33 0c.926.018 1.913.698 2.013 1.98.038.012.077.027.118.036.612.127 1.208.3 1.776.56.44.2.85.443 1.213.762.545.48.906 1.068 1.044 1.787.04.208.06.418.06.63-.004.468-.005.935-.005 1.4 0 .68-.006 1.358.004 2.037.01.747.054 1.493.152 2.234.097.723.25 1.433.513 2.117a5.68 5.68 0 0 0 1.395 2.116c.47.445.904.925 1.283 1.454.185.26.352.528.48.82.066.154.123.313.147.48.01.066.017.135.017.203-.002.336-.01.672-.01 1.008.002.402-.178.66-.562.78-.11.034-.23.05-.347.063-.105.01-.212.006-.317.006H1.284c-.187 0-.374.01-.557-.04-.066-.018-.134-.034-.196-.06-.31-.127-.472-.374-.47-.712l.003-.86c0-.06.008-.126-.063-.162v-.112zM13.502 21.534c.01.166-.008.32-.035.472-.164.896-.645 1.58-1.407 2.065a3.317 3.317 0 0 1-3.954-.318c-.55-.49-.884-1.1-.995-1.83a1.52 1.52 0 0 1-.014-.395c.047-.005.082-.01.118-.012.974-.024 6.084-.01 6.288.02z"/></g><g fill-rule="evenodd" clip-rule="evenodd"><path d="M0 18.528c.048-.03.06-.08.067-.128.04-.25.142-.476.258-.697a6.32 6.32 0 0 1 .778-1.116c.264-.315.542-.618.843-.898.782-.73 1.286-1.623 1.596-2.636.165-.542.272-1.098.347-1.66.13-1.002.156-2.01.155-3.02 0-.846-.005-1.692-.01-2.54a3.407 3.407 0 0 1 .17-1.12c.18-.53.49-.974.904-1.347.416-.374.896-.647 1.41-.864a8.593 8.593 0 0 1 1.604-.485c.042-.01.082-.022.12-.033C8.364.625 9.426-.017 10.33 0c.926.018 1.913.698 2.013 1.98.038.012.077.027.118.036.612.127 1.208.3 1.776.56.44.2.85.443 1.213.762.545.48.906 1.068 1.044 1.787.04.208.06.418.06.63-.004.468-.005.935-.005 1.4 0 .68-.006 1.358.004 2.037.01.747.054 1.493.152 2.234.097.723.25 1.433.513 2.117a5.68 5.68 0 0 0 1.395 2.116c.47.445.904.925 1.283 1.454.185.26.352.528.48.82.066.154.123.313.147.48.01.066.017.135.017.203-.002.336-.01.672-.01 1.008.002.402-.178.66-.562.78-.11.034-.23.05-.347.063-.105.01-.212.006-.317.006H1.284c-.187 0-.374.01-.557-.04-.066-.018-.134-.034-.196-.06-.31-.127-.472-.374-.47-.712l.003-.86c0-.06.008-.126-.063-.162v-.112zM13.502 21.534c.01.166-.008.32-.035.472-.164.896-.645 1.58-1.407 2.065a3.317 3.317 0 0 1-3.954-.318c-.55-.49-.884-1.1-.995-1.83a1.52 1.52 0 0 1-.014-.395c.047-.005.082-.01.118-.012.974-.024 6.084-.01 6.288.02z"/></g></svg>