<svg xmlns="http://www.w3.org/2000/svg" width="64" height="64" viewBox="0 0 36.215 32.049"><path fill-rule="evenodd" clip-rule="evenodd" d="M16.583 32.05c-.858-.1-1.728-.143-2.573-.31-1.648-.33-3.28-.735-4.922-1.1-.374-.083-.458-.293-.457-.662.013-6.566.01-13.133.01-19.7v-.673L3.95 12.62C2.627 10.15 1.32 7.718 0 5.253c.162-.106.305-.208.456-.3C2.25 3.872 4.08 2.85 5.822 1.69 7.106.833 8.442.236 9.972.075c.044-.004.082-.05.122-.075h2.85c-.053 2.68 1.48 4.57 4.238 5.225 2.257.536 4.45-.4 5.468-2.35.47-.898.703-1.86.716-2.875h3.244c.157.036.313.082.472.107.85.137 1.65.394 2.354.912.407.3.817.597 1.247.862 1.685 1.038 3.378 2.063 5.068 3.093.15.09.295.192.465.305L32.35 12.6c-1.567-1.002-3.084-1.973-4.68-2.992v.705c0 6.548-.003 13.097.01 19.645.002.4-.102.59-.498.668-1.875.366-3.742.77-5.62 1.117-.832.153-1.682.207-2.522.306h-2.457z"/></svg>