<svg xmlns="http://www.w3.org/2000/svg" width="64" height="64" viewBox="0 0 13.896 29.807"><path fill-rule="evenodd" clip-rule="evenodd" d="M2.967 29.807c-.008-.196-.024-.394-.024-.59v-13.67-.63H0V9.673h2.942c0-.23-.005-.42 0-.613.038-1.396-.028-2.804.14-4.182C3.413 2.222 5.333.422 8 .09c.118-.013.23-.06.345-.09h5.47v5.106h-2.252c-.38 0-.76-.012-1.138.008-.69.038-1.198.412-1.23 1.053-.058 1.146-.017 2.297-.017 3.498h4.717l-.544 5.233H9.19c-.016.148-.038.264-.038.38-.002 4.782 0 9.564 0 14.346 0 .06.008.12.013.182H2.967z"/></svg>