<svg xmlns="http://www.w3.org/2000/svg" width="64" height="64" viewBox="0 0 29.42 30.9"><g fill-rule="evenodd" clip-rule="evenodd"><path d="M22.406 10.08h1.634c1.557 0 3.114-.003 4.67 0 .668 0 .806.178.652.833-1.41 5.987-2.82 11.975-4.237 17.96C24.82 30.16 23.87 30.9 22.56 30.9H6.847c-1.27 0-2.242-.737-2.532-1.962C2.883 22.898 1.46 16.855.037 10.813c-.118-.5.036-.727.523-.73 2.095-.008 4.19-.003 6.285 0 .067 0 .135.02.248.04 0 .515-.008 1.02.002 1.526.026 1.306.848 2.325 2.054 2.56 1.356.266 2.73-.737 2.89-2.146.063-.546.043-1.102.054-1.653.004-.186.02-.33.267-.33 1.656.004 3.31 0 5.038 0 0 .494-.005.955 0 1.416.016.995.355 1.835 1.227 2.38 1.636 1.02 3.688-.134 3.777-2.123.024-.534.004-1.07.004-1.674z"/><path d="M8.338 8.886c.043-1.116.013-2.24.144-3.345.348-2.926 2.94-5.363 5.8-5.53 3.07-.178 5.828 1.81 6.58 4.786.156.61.236 1.254.25 1.884.034 1.613.014 3.227.01 4.84 0 .834-.492 1.397-1.207 1.398-.718 0-1.223-.56-1.227-1.39-.008-1.67.01-3.34-.01-5.01a4.076 4.076 0 0 0-3.128-3.903c-1.827-.433-3.897.74-4.467 2.578a5.97 5.97 0 0 0-.256 1.62c-.034 1.514-.01 3.03-.014 4.543 0 .183-.01.37-.043.548-.123.644-.64 1.05-1.27 1.01a1.192 1.192 0 0 1-1.11-1.182c-.02-.948-.006-1.896-.006-2.844-.015 0-.03 0-.046-.002z"/></g></svg>