<svg xmlns="http://www.w3.org/2000/svg" width="64" height="64" viewBox="0 0 21.082 25.303"><path fill-rule="evenodd" clip-rule="evenodd" d="M3.108 9.437c.112-.203.07-.4.075-.59.016-.694-.024-1.394.047-2.083.268-2.59 1.49-4.596 3.78-5.882C8.306.155 9.715-.08 11.2.024c2.903.207 5.85 2.264 6.586 6.02.104.53.152 1.07.142 1.613-.01.577-.002 1.153-.002 1.69.16.178.323.123.47.133.326.024.657.017.98.064.993.146 1.687 1.067 1.7 1.922.002.193.006.386.006.58v10.71c0 .174-.005.348-.004.522.008.868-.692 1.933-2 2.02-.134.007-.27.002-.404.002H2.404c-.214 0-.43.004-.636-.033-.98-.175-1.672-.95-1.76-1.957-.01-.113-.008-.23-.008-.345 0-3.706-.002-7.412.003-11.118 0-.25.02-.504.08-.744.22-.868.783-1.397 1.665-1.562.264-.048.537-.04.806-.058.19-.01.385.025.554-.045zm12.695-.016c.05-.46.068-2.232.018-2.576a8.452 8.452 0 0 0-.166-.85c-.654-2.53-3.17-4.204-5.756-3.88-2.576.324-4.51 2.506-4.61 4.883-.033.732-.017 1.465-.02 2.198 0 .073.024.146.043.248.125.014.235.034.346.037 2.392.07 9.595.03 10.147-.06zm-4.43 8.4c.206-.145.37-.245.518-.364.83-.67 1.03-1.865.464-2.767-.644-1.02-1.83-1.2-2.69-.808-1.44.658-1.67 2.61-.427 3.595.148.117.31.218.487.343-.22.556-.435 1.088-.64 1.625-.203.533-.466 1.045-.603 1.597.07.034.105.063.14.063 1.137.005 2.275.008 3.413.01.154 0 .308-.012.462-.02.018 0 .04-.006.055-.017.013-.01.02-.03.065-.1-.153-.49-.386-.994-.585-1.51-.21-.535-.426-1.07-.656-1.65z"/></svg>