<svg xmlns="http://www.w3.org/2000/svg" width="64" height="64" viewBox="0 0 28.511 32.049"><path fill-rule="evenodd" clip-rule="evenodd" d="M10.54 0c1.163.434 1.793 1.366 2.262 2.44.845 1.94 1.193 4.005 1.46 6.084.08.647.097 1.305.108 1.96.014.787-.06 1.562-.59 2.31.937-.08 1.875-.143 2.81-.24 2.62-.27 5.24-.563 7.86-.832 1.083-.11 2.08.76 2.393 2.05.335 1.377-.126 2.41-1.513 3.245.338 0 .592-.007.846 0 1.546.05 2.667 1.494 2.248 2.893-.17.567-.547.975-1.06 1.23-.448.223-.93.375-1.416.566 1.413.7 2.35 1.71 1.96 3.438-.26 1.144-.96 1.666-2.48 1.905.143.104.252.187.362.266 1.3.938 1.26 2.565-.154 3.327-.613.33-1.354.43-2.045.605-.214.055-.456.02-.685.008-2.595-.126-5.16.138-7.72.542-.756.12-1.522.168-2.285.25h-2.85c-.242-.035-.48-.075-.723-.103-.763-.09-1.533-.14-2.29-.267a73.67 73.67 0 0 1-3.318-.653C2.5 30.76 1.28 30.63.03 30.96c-.01-.163-.02-.26-.02-.356-.002-4.01.002-8.02-.01-12.03 0-.36.145-.548.45-.665.762-.294 1.53-.574 2.284-.886.232-.096.493-.233.632-.428.833-1.173 1.675-2.344 2.438-3.563 1.094-1.75 2.15-3.552 2.52-5.606.38-2.122.58-4.277.847-6.42.06-.465.1-.91.682-1.007h.688z"/></svg>