<svg xmlns="http://www.w3.org/2000/svg" width="64" height="64" viewBox="0 0 26.994 26.151"><g fill-rule="evenodd" clip-rule="evenodd"><path d="M26.994 0v5.806c-.178 0-.326-.01-.473.002-.15.01-.346-.08-.415.166-.008.03-.125.044-.19.044-1.874.002-3.747 0-5.62 0-.04 0-.078-.01-.127-.018-.012-.038-.034-.074-.034-.11 0-1.963.003-3.927.006-5.89h6.854zM20.14 26.15l-.007-5.89c0-.027.013-.056.032-.13h.34c1.753 0 3.507 0 5.26.004.152 0 .35-.08.413.173.007.027.126.035.193.037.2.005.397.002.625.002v5.805H20.14zM16.172 0c.003 1.86.008 3.72.003 5.582 0 .14-.075.28-.115.423h-5.997V5.64.358c0-.12-.016-.238-.023-.357h6.132zM10.04 26.15c.007-.118.022-.237.022-.356v-5.28-.366h5.99c.04.13.122.276.122.423.006 1.86 0 3.722-.002 5.582H10.04zM0 10.04c.12.01.238.024.356.024 1.75.002 3.503.002 5.254.002h.38v6.024H.357c-.12 0-.24.014-.358.022V10.04zM6.012 0v6.012H0V0h6.012zM0 20.14h6.012v6.012H0V20.14zM20.153 10.126h6.807v5.814c-.005.004-.02.024-.036.026-2.217.234-4.44.082-6.66.12-.03 0-.058-.012-.11-.025v-5.934zM13.063 16.09c-.902 0-1.803-.008-2.705.007-.246.004-.3-.08-.3-.31.008-1.803.01-3.606 0-5.41-.002-.254.078-.317.323-.315 1.804.01 3.607.008 5.41 0 .277 0 .395.093.394.384a614.605 614.605 0 0 0 0 5.26c0 .28-.1.393-.386.39-.912-.012-1.823-.005-2.735-.005z"/></g></svg>