<svg xmlns="http://www.w3.org/2000/svg" width="64" height="64" viewBox="0 0 20.543 24.578"><g fill-rule="evenodd" clip-rule="evenodd"><path d="M0 18.528c.048-.03.06-.078.067-.13.04-.247.142-.474.258-.694.212-.404.485-.768.778-1.117.264-.314.542-.617.843-.898.782-.73 1.286-1.622 1.596-2.636a10.44 10.44 0 0 0 .347-1.66c.13-1.002.156-2.01.155-3.018 0-.848-.005-1.693-.01-2.54a3.41 3.41 0 0 1 .17-1.12c.18-.53.49-.977.904-1.35.416-.373.895-.646 1.41-.863a8.672 8.672 0 0 1 1.603-.486c.042-.008.082-.02.12-.03C8.363.623 9.426-.018 10.33 0c.926.018 1.913.697 2.013 1.98.038.012.077.025.118.035.612.127 1.208.3 1.776.56.44.198.85.442 1.213.76.545.48.906 1.07 1.044 1.788.04.21.06.418.06.63-.004.468-.005.935-.005 1.4 0 .68-.006 1.358.004 2.036.01.747.054 1.493.152 2.233.097.723.25 1.434.513 2.117.31.81.765 1.518 1.395 2.117.47.445.904.926 1.283 1.453.185.26.352.53.48.82.066.154.123.313.147.48.01.066.017.135.017.203-.002.336-.01.672-.01 1.008.002.403-.178.663-.562.78a1.82 1.82 0 0 1-.347.066c-.105.01-.212.006-.317.006H1.284c-.187 0-.374.01-.557-.04-.066-.02-.134-.034-.196-.062-.31-.127-.474-.375-.473-.713 0-.285.003-.572.004-.857 0-.063.01-.13-.062-.164.002-.034.002-.07.002-.108zM13.502 21.534c.01.166-.008.32-.035.473-.164.895-.645 1.58-1.407 2.064a3.32 3.32 0 0 1-3.954-.32 2.99 2.99 0 0 1-.995-1.83 1.52 1.52 0 0 1-.014-.394c.047-.004.082-.01.118-.012.974-.023 6.084-.01 6.288.02z"/></g></svg>