<svg xmlns="http://www.w3.org/2000/svg" width="280" height="64" viewBox="0 0 163.582 38.329"><path d="M57.5 8.276h2.836v12.71H57.5v-5h-5.056v5h-2.837V8.276h2.837v5.31H57.5v-5.31zM77.792 19.232c-1.285 1.255-2.867 1.882-4.746 1.882s-3.46-.627-4.746-1.882c-1.285-1.254-1.927-2.815-1.927-4.682 0-1.867.642-3.428 1.927-4.682 1.285-1.255 2.867-1.882 4.746-1.882s3.46.627 4.746 1.882c1.284 1.254 1.927 2.815 1.927 4.682 0 1.867-.644 3.428-1.928 4.682zm-.964-4.673c0-1.134-.363-2.1-1.09-2.9s-1.623-1.2-2.684-1.2-1.954.4-2.682 1.2-1.09 1.766-1.09 2.9.362 2.096 1.09 2.89 1.62 1.19 2.682 1.19 1.955-.396 2.683-1.19 1.09-1.758 1.09-2.89zM88.62 10.813c-.273.225-.41.52-.41.89s.167.665.5.883c.334.218 1.104.476 2.31.773 1.206.296 2.143.742 2.81 1.335.667.594 1 1.46 1 2.6 0 1.14-.427 2.064-1.28 2.773-.856.71-1.98 1.064-3.374 1.064-2.013 0-3.825-.746-5.438-2.237l1.69-2.073c1.37 1.2 2.638 1.8 3.802 1.8.52 0 .93-.112 1.227-.336.297-.224.446-.527.446-.91s-.158-.684-.474-.908c-.316-.224-.94-.452-1.873-.682-1.48-.35-2.562-.81-3.246-1.373-.685-.564-1.026-1.45-1.026-2.655s.434-2.137 1.3-2.79c.867-.656 1.948-.983 3.246-.983.85 0 1.697.146 2.546.436.848.292 1.588.705 2.218 1.238l-1.437 2.073c-1.103-.835-2.242-1.254-3.418-1.254-.474 0-.847.113-1.12.337zM111.576 19.232c-1.285 1.255-2.867 1.882-4.746 1.882s-3.46-.627-4.746-1.882c-1.285-1.254-1.927-2.815-1.927-4.682 0-1.867.642-3.428 1.927-4.682 1.285-1.255 2.867-1.882 4.746-1.882s3.46.627 4.746 1.882c1.284 1.254 1.927 2.815 1.927 4.682 0 1.867-.643 3.428-1.927 4.682zm-.964-4.673c0-1.134-.363-2.1-1.09-2.9s-1.623-1.2-2.684-1.2-1.954.4-2.682 1.2-1.09 1.766-1.09 2.9.362 2.096 1.09 2.89 1.62 1.19 2.682 1.19 1.955-.396 2.683-1.19 1.092-1.758 1.092-2.89zM129.85 12.495c0 2.037-.806 3.352-2.418 3.946l3.22 4.547h-3.492l-2.818-4.055h-1.964v4.055h-2.837V8.277h4.82c1.976 0 3.385.333 4.228 1 .84.666 1.263 1.74 1.263 3.218zm-3.418 1.51c.352-.316.527-.816.527-1.5s-.183-1.156-.546-1.41c-.364-.255-1-.382-1.91-.382h-2.127v3.764h2.073c.97 0 1.63-.157 1.982-.473zM145.562 8.276v2.528h-6.328v2.618h5.69v2.418h-5.69v2.637h6.528v2.51h-9.365V8.276h9.165zM160.816 8.276h2.837v12.71h-2.837l-6.055-7.964v7.964h-2.836V8.276h2.655l6.235 8.183V8.275z"/><g><path d="M52.52 31.546l-.322-.75H50.74l-.323.75h-.825l1.502-3.477h.75l1.503 3.476h-.826zm-1.05-2.442l-.437 1.01h.87l-.432-1.01zM57.062 30.648c.13.16.304.24.522.24s.393-.08.52-.24c.128-.16.192-.38.192-.66v-1.92h.775v1.946c0 .504-.138.892-.417 1.162-.278.27-.635.405-1.07.405s-.79-.135-1.07-.407c-.28-.272-.42-.658-.42-1.16V28.07h.775v1.92c0 .278.065.497.194.658zM63.837 28.74v2.806h-.776V28.74h-.983v-.67h2.745v.67h-.985zM70.034 28.07h.775v3.476h-.776v-1.368H68.65v1.368h-.775V28.07h.776v1.452h1.384V28.07zM76.66 28.07v.69h-1.73v.716h1.556v.662H74.93v.72h1.784v.688h-2.562V28.07h2.507zM82.325 28.07h.775v3.476h-.775l-1.656-2.18v2.18h-.777V28.07h.727l1.706 2.237V28.07zM87.916 28.74v2.806h-.776V28.74h-.984v-.67H88.9v.67h-.984zM91.955 28.07h.776v3.476h-.775V28.07zM97.67 30.86c.382 0 .693-.152.936-.454l.497.512c-.395.445-.86.667-1.396.667-.535 0-.977-.17-1.323-.507-.346-.338-.52-.765-.52-1.28s.177-.947.53-1.292a1.782 1.782 0 0 1 1.295-.518c.57 0 1.047.217 1.432.652l-.482.547c-.245-.305-.55-.458-.915-.458-.292 0-.54.094-.748.285-.208.19-.312.448-.312.77s.098.584.294.78a.96.96 0 0 0 .71.294zM105.907 30.382v-.662h1.77v.662h-1.77zM115.54 28.763a.3.3 0 0 0-.112.244c0 .102.046.182.137.242.092.06.302.13.632.21.33.08.586.203.77.365.182.163.272.4.272.71s-.117.565-.352.76c-.233.194-.54.29-.923.29-.55 0-1.046-.203-1.487-.61l.463-.568c.376.328.723.493 1.04.493.144 0 .255-.03.336-.092.082-.06.122-.144.122-.25s-.043-.187-.13-.248c-.086-.062-.256-.124-.512-.187-.404-.096-.7-.22-.888-.375-.188-.154-.28-.396-.28-.726s.118-.584.354-.764c.237-.18.533-.27.89-.27.23 0 .463.04.695.12.23.08.434.193.606.34l-.393.566c-.302-.23-.614-.343-.936-.343-.127 0-.23.032-.304.093zM120.387 28.07h.776v3.476h-.776V28.07zM126.938 28.07h.775v3.476h-.775l-1.656-2.18v2.18h-.776V28.07h.727l1.706 2.237V28.07zM132.653 30.86c.382 0 .693-.152.936-.454l.496.512c-.395.445-.86.667-1.396.667-.535 0-.977-.17-1.323-.507-.346-.338-.52-.765-.52-1.28s.177-.947.53-1.292a1.782 1.782 0 0 1 1.295-.518c.57 0 1.048.217 1.433.652l-.482.547c-.245-.305-.55-.458-.915-.458-.292 0-.54.094-.748.285-.208.19-.312.448-.312.77s.098.584.294.78a.962.962 0 0 0 .71.294zM139.69 28.07v.69h-1.73v.716h1.558v.662h-1.557v.72h1.786v.688h-2.562V28.07h2.507zM146.452 28.07h1.407v3.476h-.747V28.73h-.66v-.66zM152.157 30.92c.215 0 .382-.073.5-.217.117-.144.19-.34.216-.59-.212.144-.44.215-.687.215a1.11 1.11 0 0 1-.813-.32c-.217-.215-.325-.498-.325-.85s.117-.633.35-.847.53-.32.884-.32c.245 0 .458.047.64.142.18.094.322.226.425.395.195.33.294.74.294 1.234 0 .32-.038.6-.116.84-.078.24-.184.43-.316.57a1.33 1.33 0 0 1-.99.416 1.52 1.52 0 0 1-.467-.072 1.496 1.496 0 0 1-.337-.145 3.54 3.54 0 0 1-.264-.188l.387-.547.092.077c.037.03.11.074.22.126a.67.67 0 0 0 .307.08zm.107-1.254a.565.565 0 0 0 .386-.134c.103-.09.154-.207.154-.353s-.05-.273-.15-.38c-.1-.105-.223-.158-.372-.158s-.27.047-.365.142c-.095.095-.142.215-.142.36s.043.27.13.372c.084.1.204.15.36.15zM157.773 30.92c.215 0 .382-.073.5-.217.117-.144.19-.34.216-.59-.213.144-.44.215-.688.215a1.11 1.11 0 0 1-.813-.32c-.218-.215-.326-.498-.326-.85s.117-.633.35-.847.53-.32.884-.32c.245 0 .458.047.64.142.18.094.322.226.425.395.195.33.294.74.294 1.234 0 .32-.04.6-.117.84-.078.24-.184.43-.316.57a1.33 1.33 0 0 1-.99.416 1.52 1.52 0 0 1-.467-.072 1.496 1.496 0 0 1-.338-.145 3.54 3.54 0 0 1-.265-.188l.388-.547.092.077c.038.03.112.074.222.126a.67.67 0 0 0 .306.08zm.107-1.254a.565.565 0 0 0 .386-.134c.103-.09.154-.207.154-.353s-.05-.273-.15-.38c-.1-.105-.223-.158-.372-.158s-.27.047-.365.142c-.095.095-.142.215-.142.36s.044.27.13.372c.085.1.206.15.36.15zM162.175 28.07h1.407v3.476h-.746V28.73h-.66v-.66z"/></g><path fill-rule="evenodd" clip-rule="evenodd" d="M19.164 0l6.776 2.806 6.776 2.808 2.807 6.775 2.807 6.775-2.807 6.776-2.807 6.776-6.776 2.807-6.776 2.806-6.775-2.807-6.776-2.807-2.807-6.775L0 19.166l2.807-6.776 2.807-6.776 6.775-2.808L19.163 0zm0 30.75c.46-.595 1.314-.566 1.896-.402.132.036.27-.04.308-.17.093-.328.237-.647.43-.956.406-.658.68-.534-.078-.96a5.91 5.91 0 0 0-.998-.445c-1.162-.4-1.95-.4-3.112 0-.35.12-.686.27-.998.446-.757.425-.483.3-.077.96.192.31.337.627.43.954.038.13.175.208.307.17.58-.163 1.435-.192 1.892.404zM13.95 17.444a.156.156 0 0 0-.083.288c.86.53 1.397 1.43 2.18 1.576.835.157 1.487-.625 1.6-1.52a.15.15 0 0 0-.066-.146.152.152 0 0 0-.163-.006c-.675.388-2.24-.178-3.466-.19zm5.214-2.966c-1.864-2.005-4.16-2.813-5.928-2.17-4.646 1.688-3.52 7.508-1.967 9.46.243-.52.587-.974 1.508-1.317-.053 1.906.02 2.603.822 3.327.457-1.268 1.188-2.068 2.245-2.31-.777.817-1.34 1.733-1.612 2.785-.278 1.074-.34 1.71.38 2.584.312.38.67.66 1.04.917A7.63 7.63 0 0 1 18.05 26.7c.083-.02.168-.035.255-.058.418-.11.46-.177.46-.95 0-.48.03-.487-.312-.822a5.44 5.44 0 0 0-1.144-.88c-.512-.288-.94-.2-.554-.694.317-.404.484-.32.95-.32h2.914c.468 0 .635-.084.952.32.388.494-.042.407-.554.695a5.58 5.58 0 0 0-1.144.88c-.343.335-.31.342-.31.823 0 .772.04.84.46.95.085.022.17.038.255.058a7.63 7.63 0 0 1 2.395 1.053c.37-.257.728-.537 1.04-.917.72-.873.658-1.51.38-2.584-.274-1.05-.837-1.968-1.613-2.785 1.058.242 1.788 1.042 2.245 2.31.8-.724.876-1.42.823-3.327.92.343 1.265.796 1.508 1.318 1.554-1.953 2.68-7.772-1.966-9.462-1.766-.642-4.062.166-5.928 2.17zm5.214 2.966c-1.224.013-2.79.578-3.465.19a.15.15 0 0 0-.164.007.15.15 0 0 0-.067.147c.112.894.765 1.675 1.6 1.52.783-.147 1.32-1.047 2.18-1.576a.155.155 0 0 0 .068-.174.16.16 0 0 0-.152-.113z"/></svg>