<svg xmlns="http://www.w3.org/2000/svg" width="64" height="64" viewBox="0 0 34.458 33.477"><g fill-rule="evenodd" clip-rule="evenodd"><path d="M34.458 32.767c-.242.13-.485.256-.723.39-.99.564-1.896.34-2.726-.33-.382-.306-.715-.67-1.064-1.017-2.294-2.27-4.586-4.543-6.88-6.814-.297-.293-.6-.582-.87-.844-.602-.027-.942.365-1.335.617a13.133 13.133 0 0 1-5.076 1.93C7.99 27.912 1.702 22.603.29 16.23-1.065 10.13 2.385 2.82 9.6.598c7.206-2.22 15.03 1.943 17.063 9.313.81 2.94.616 5.83-.57 8.645-.246.582-.53 1.146-.793 1.715.027.3.214.492.417.693 2.745 2.713 5.48 5.434 8.226 8.145.136.135.342.195.516.29-.002 1.123-.002 2.246-.002 3.37zM13.53 22.712c5.023.05 9.385-3.707 9.426-9.22.043-5.765-4.698-9.335-9.328-9.362-4.827-.027-9.42 3.752-9.44 9.262-.02 5.888 4.986 9.466 9.343 9.32z"/><path d="M18.045 12.327c.07.22.196.473.222.738.04.416.023.838.012 1.258-.015.516-.272.8-.748.828-.35.02-.7.032-1.05.032-1.113.002-1.285.268-1.29 1.4 0 .348-.024.7-.04 1.047-.008.24-.3.593-.508.595a53.5 53.5 0 0 1-1.88-.006c-.268-.01-.534-.29-.548-.546-.024-.42-.032-.838-.05-1.258-.01-.21-.02-.418-.038-.627-.02-.257-.29-.538-.543-.554-.488-.03-.98-.04-1.467-.072-.207-.016-.424-.037-.614-.113-.112-.042-.247-.192-.26-.304a14.06 14.06 0 0 1-.07-1.465c.004-.91.173-1.07 1.104-1.108.42-.016.84-.02 1.258-.04.366-.02.596-.28.615-.694.026-.56.042-1.12.07-1.678.013-.258.278-.537.538-.54a59.1 59.1 0 0 1 1.883 0c.25.003.452.292.514.573.16.736-.206 1.55.336 2.227.678.26 1.39.086 2.08.174.136.018.267.073.475.133z"/></g></svg>