<svg xmlns="http://www.w3.org/2000/svg" width="64" height="64" viewBox="0 0 33.615 29.807"><path fill-rule="evenodd" clip-rule="evenodd" d="M23.972 0c.324.072.65.133.97.22a6.676 6.676 0 0 1 3.2 1.913c.174.187.323.243.587.178 1.395-.343 2.696-.904 4.01-1.71-.236.89-.592 1.63-1.11 2.27-.507.627-1.092 1.194-1.71 1.86.666-.155 1.284-.273 1.885-.45.593-.177 1.167-.413 1.81-.644-.072.13-.115.23-.175.318-.777 1.17-1.685 2.23-2.777 3.116-.323.262-.412.528-.41.92.043 5.56-1.613 10.558-5.118 14.88-3.337 4.112-7.674 6.424-12.98 6.856-.135.01-.266.053-.398.08h-2.37c-.116-.026-.23-.07-.35-.08-3.09-.246-5.92-1.25-8.525-2.912-.146-.094-.286-.197-.512-.353 3.865.363 7.178-.682 10.19-3.14-1.6-.11-2.93-.6-4.07-1.552-1.152-.957-1.93-2.16-2.397-3.656 1.01.166 1.964.18 2.915-.154-1.625-.503-2.926-1.43-3.926-2.794-.993-1.356-1.594-3.642-1.357-4.606.91.473 1.844.845 3.016.84-1.586-1.265-2.52-2.795-2.876-4.65-.354-1.836-.134-3.606.773-5.34 1.764 2.3 3.83 4.15 6.308 5.522 2.473 1.37 5.11 2.167 7.928 2.303 0-1.052-.138-2.06.025-3.013.51-2.98 2.166-5.055 5.116-5.982.314-.1.64-.16.96-.238h1.368z"/></svg>