<svg xmlns="http://www.w3.org/2000/svg" width="64" height="64" viewBox="0 0 22.61 19.085"><path fill-rule="evenodd" clip-rule="evenodd" d="M11.172 19.084c-2.733 0-5.468.002-8.2 0-.42 0-.842-.002-1.262-.02a1.787 1.787 0 0 1-1.696-1.798c0-.14-.012-.28-.012-.42L0 11.376c0-.49.05-.97.235-1.438C1.458 6.883 2.667 3.82 3.88.762c.206-.523.605-.74 1.146-.746.63-.006 1.26-.014 1.892-.014C10.072 0 13.226-.002 16.38.006c.488.002.98.027 1.462.1.18.025.394.18.494.338.188.29.313.625.446.95 1.094 2.653 2.17 5.313 3.282 7.962.358.855.564 1.713.544 2.648-.035 1.54 0 3.084-.02 4.625a4.66 4.66 0 0 1-.18 1.237c-.192.662-.69 1.057-1.358 1.16-.48.074-.978.055-1.468.055-2.803.004-5.606.002-8.41.002zM5.642 1.84c-.2.375-.352.613-.456.87-1.003 2.462-1.997 4.93-2.99 7.394-.053.13-.08.268-.114.404-.017.066-.017.137-.03.205-.033.156.17.465.33.47.908.022 1.817.036 2.727.06.488.012.98.008 1.465.072.18.023.41.186.493.35.315.62.645 1.25.85 1.912.3.975.9 1.287 1.882 1.227 1.188-.074 2.38-.025 3.57-.04.39-.003.677-.235.826-.556.326-.695.623-1.408.89-2.13.23-.626.67-.84 1.295-.833.772.01 1.542.006 2.312-.008.348-.008.694-.053 1.04-.086.162-.015.358-.317.3-.474a3086.522 3086.522 0 0 0-3.108-8.47c-.045-.12-.173-.21-.263-.314-.133-.037-.267-.105-.4-.105-3.223-.016-6.443-.025-9.666-.03-.28 0-.555.048-.952.083z"/></svg>