<svg xmlns="http://www.w3.org/2000/svg" width="64" height="64" viewBox="0 0 39.738 29.203"><g fill-rule="evenodd" clip-rule="evenodd"><path d="M38.04 29.203h-1.06c-.846-.274-1.722-.48-2.533-.835-2.158-.942-4.022-2.348-5.79-3.876-3.08-2.664-5.435-5.838-6.685-9.75-1.075-3.363-.882-6.654.813-9.782 1.365-2.52 3.4-4.21 6.27-4.78.375-.077.76-.12 1.14-.18h.988c.112.024.223.056.336.07 3.065.347 5.453 1.784 6.873 4.55 1.53 2.978 1.166 5.938-.51 8.745-1.225 2.045-2.99 3.316-5.47 3.423-.475.02-.96.13-1.412.28-.58.19-.815.6-.666 1.184a3.9 3.9 0 0 0 .52 1.18c.632.955 1.484 1.712 2.414 2.358 1.45 1.003 2.944 1.943 4.417 2.915.87.572 1.69 1.196 2.053 2.237v.707c-.21.697-.587 1.24-1.335 1.44-.12.03-.24.073-.362.113zM0 11.596V9.828c.022-.076.056-.15.063-.227.153-1.646.606-3.207 1.41-4.655C2.8 2.567 4.698.895 7.397.25 7.87.138 8.358.082 8.84 0H9.9c.297.046.594.087.89.14 3.108.573 5.417 2.216 6.606 5.182 1.187 2.962.66 5.79-1.064 8.4-1.222 1.848-2.923 2.964-5.21 3.062-.462.02-.936.122-1.38.264-.66.21-.902.66-.7 1.317.126.41.326.81.567 1.163.574.846 1.327 1.538 2.16 2.117 1.497 1.04 3.05 2 4.548 3.04.603.42 1.184.902 1.668 1.45.827.937.48 2.687-1.074 3-.053.01-.102.046-.153.07h-1.13c-.042-.022-.078-.05-.12-.063-.826-.268-1.698-.438-2.468-.816-3.51-1.716-6.48-4.13-8.915-7.185C2.32 18.87.963 16.36.327 13.5c-.14-.628-.22-1.27-.327-1.902z"/></g></svg>