<svg xmlns="http://www.w3.org/2000/svg" width="64" height="64" viewBox="0 0 39.9 40.05"><path fill-rule="evenodd" clip-rule="evenodd" d="M31.8 21.227c-.45.774-1.1 1.184-1.83 1.45-.922.336-1.863.614-2.796.92-.532.173-1.074.326-1.59.54a.686.686 0 0 0-.352.463c-.05.413-.046.838 0 1.252.02.187.158.392.302.526.2.19.453.325.69.475.606.382 1.1.867 1.418 1.516.427.87 1.117 1.39 2.04 1.688.596.192 1.18.465 1.712.795 1.396.865 2.927 1.348 4.52 1.63.86.15 1.642.405 2.222 1.07.646.745 1.24 1.533 1.36 2.56.13 1.112.45 2.202.397 3.336-.01.254-.26.54-.52.554-.49.022-.98.046-1.47.046-11.995.002-23.99.002-35.985 0-.42 0-.842-.01-1.262-.03-.49-.024-.712-.32-.646-.853.12-.974.24-1.948.37-2.92a4.363 4.363 0 0 1 3.485-3.72c1.733-.338 3.385-.86 4.91-1.78.594-.36 1.27-.584 1.92-.848.605-.246 1.11-.604 1.413-1.19.46-.9 1.11-1.616 2.003-2.093.422-.225.59-.575.605-1.025.008-.28.032-.563.005-.84-.027-.28-.12-.556-.43-.657-.932-.305-1.87-.59-2.8-.903-.662-.224-1.31-.49-1.97-.726-.486-.174-.82-.54-1.126-.918a.687.687 0 0 1-.09-.568c.167-.458.384-.902.614-1.333.91-1.698 1.33-3.53 1.534-5.426.278-2.58.652-5.145 1.214-7.68.09-.408.188-.82.326-1.213.707-2.02 1.998-3.49 3.988-4.365 1.572-.69 3.174-1.11 4.897-.908 1.93.228 3.658.987 5.146 2.21 1.053.867 1.622 2.1 2.044 3.376.197.596.322 1.22.43 1.84.353 2.073.713 4.142.938 6.236.233 2.168.742 4.28 1.776 6.232.232.426.41.88.59 1.28z"/></svg>