<svg xmlns="http://www.w3.org/2000/svg" width="64" height="64" viewBox="0 0 40.201 38.304"><path fill-rule="evenodd" clip-rule="evenodd" d="M24.165 23.502c3.067.695 5.747 2.048 8.323 3.644 1.072.664 2.177 1.278 3.28 1.89.984.548 1.926 1.152 2.74 1.94.662.642 1.2 1.366 1.495 2.256.183.547.295 1.118.08 1.647-.28.69-.216 1.37-.134 2.068.03.275.088.564.04.83-.033.174-.215.424-.364.45-.41.08-.837.07-1.258.07-2.525.007-5.052.005-7.58.005-9.332 0-18.665 0-27.998-.002-.7 0-1.402-.026-2.104-.05-.197-.006-.504-.38-.5-.594.007-.21.012-.422.03-.63.064-.7.082-1.38-.116-2.082-.26-.92.012-1.802.473-2.62a6.027 6.027 0 0 1 1.664-1.88 24.09 24.09 0 0 1 2.105-1.385c1.266-.753 2.568-1.443 3.827-2.205 2.29-1.386 4.676-2.548 7.278-3.23.547-.143.623-.372.27-.906-1.244-1.894-2.022-3.997-2.803-6.102a7.878 7.878 0 0 1-.506-2.462c-.076-2.103-.155-4.206-.19-6.31-.02-1.13.204-2.225.606-3.292.89-2.358 2.536-3.842 5.01-4.328 1.737-.342 3.483-.324 5.2.215 1.54.486 2.728 1.418 3.543 2.807.645 1.1 1.077 2.28 1.16 3.568.022.35.06.7.053 1.05-.037 2.035-.095 4.07-.126 6.104-.014.924-.208 1.812-.518 2.672-.713 1.98-1.484 3.938-2.605 5.735-.18.3-.408.575-.38 1.125z"/></svg>