<svg xmlns="http://www.w3.org/2000/svg" width="64" height="64" viewBox="0 0 51.227 40.285"><path fill-rule="evenodd" clip-rule="evenodd" d="M50.955 0c.084.266.214.526.24.797.043.487.028.98.028 1.47.002 9.74.002 19.48 0 29.218 0 2.474.165 2.458-2.367 2.458-.487 0-.977.05-1.46.116-.108.014-.257.172-.28.285-.066.34-.083.692-.114 1.04-.037.417-.032.843-.122 1.248-.035.158-.263.345-.434.385-.335.078-.692.09-1.04.078-2.1-.064-4.203-.1-6.3-.228-2.18-.132-4.343-.005-6.506.197a8.66 8.66 0 0 0-2.825.763c-.722.33-1.353.78-1.604 1.567-.237.75-.763.913-1.457.886-.7-.026-1.4-.01-2.102-.017-.472-.004-.805-.227-.948-.675-.33-1.038-1.128-1.595-2.08-1.922-.788-.27-1.613-.5-2.438-.59-2.16-.234-4.325-.34-6.504-.208-2.027.125-4.06.16-6.092.222-.417.013-.836-.028-1.253-.057-.24-.016-.495-.31-.514-.576-.02-.28-.034-.558-.048-.838-.018-.35-.027-.7-.048-1.05-.016-.278-.257-.552-.508-.565-.628-.032-1.258-.08-1.887-.072a9.094 9.094 0 0 1-2.292-.244C0 22.46 0 11.23 0 0h5.475c.26.093.514.235.78.27C6.88.347 7.512.374 8.14.42c2.934.22 5.844.607 8.712 1.276 1.845.43 3.646.99 5.326 1.882 1.513.803 2.82 1.827 3.53 3.458.043.1.17.163.283.266.143-.162.32-.295.405-.474.69-1.464 1.878-2.408 3.247-3.174 1.167-.653 2.406-1.13 3.684-1.504 2.15-.63 4.347-1.047 6.57-1.334 1.738-.224 3.478-.4 5.225-.503.42-.025.84-.063 1.203-.315h4.632zM46.98 16.446c0-3.574.003-7.148-.004-10.722 0-.63-.038-1.26-.067-1.888-.01-.2-.366-.523-.58-.52-1.12.007-2.242-.005-3.36.043-2.877.123-5.717.517-8.507 1.24-1.224.317-2.42.72-3.523 1.34a11.83 11.83 0 0 0-1.722 1.19c-.79.656-1.216 1.523-1.232 2.568-.006.42-.01.84-.01 1.26-.002 6.308-.005 12.614.003 18.92 0 .628.06 1.256.123 1.88.01.09.204.228.313.227.203 0 .418-.058.605-.142 2.395-1.07 4.943-1.563 7.517-1.856 2.503-.286 5.017-.545 7.546-.496.7.014 1.4-.02 2.1-.045.478-.018.74-.296.766-.808.022-.49.03-.98.03-1.47v-10.72zM4.74 16.27c0 3.645-.003 7.29.004 10.934 0 .56.036 1.118.07 1.677.015.263.285.513.556.537.278.024.558.05.837.055 2.452.038 4.897.11 7.345.35 3.224.313 6.386.824 9.386 2.098.064.027.136.037.202.057.135.04.472-.16.483-.297.04-.486.104-.972.104-1.457.008-6.518.006-13.035.003-19.553 0-.49-.02-.98-.046-1.47-.036-.673-.37-1.188-.886-1.603-.663-.533-1.422-.896-2.2-1.214-1.364-.557-2.784-.95-4.213-1.293-3.204-.77-6.462-1.238-9.727-1.653-.416-.053-.84-.045-1.26-.058-.224-.007-.585.29-.596.49-.026.49-.058.98-.06 1.47-.004 3.643 0 7.287-.002 10.93z"/></svg>