<svg xmlns="http://www.w3.org/2000/svg" width="64" height="64" viewBox="0 0 62.431 33.888"><path fill-rule="evenodd" clip-rule="evenodd" d="M0 17.777V16.11c.01-.062.023-.122.03-.184.116-.876.17-1.765.355-2.624 1.03-4.747 3.56-8.472 7.703-11.05 1.907-1.186 3.995-1.89 6.23-2.145.345-.04.69-.07 1.034-.107h1.517c.067.01.134.028.203.032 1.892.112 3.71.544 5.42 1.355 4.767 2.26 7.746 6.016 9.15 11.063.057.2.13.26.337.26 10.068-.005 20.137-.005 30.205-.005.082 0 .164-.004.246-.007v8.49c-.037-.002-.075-.006-.112-.006h-7.77c-.05 0-.1.005-.177.01v8.445h-8.05v-8.455h-.258c-4.693 0-9.387 0-14.08-.005-.206 0-.283.055-.34.258-1.176 4.334-3.606 7.76-7.43 10.15a14.95 14.95 0 0 1-6.312 2.193c-.344.04-.688.072-1.033.108H15.35c-.06-.01-.123-.028-.184-.03a14.902 14.902 0 0 1-4.534-.977C7.358 31.613 4.78 29.48 2.85 26.562c-1.54-2.332-2.442-4.9-2.743-7.68-.038-.366-.07-.736-.107-1.106zm26.58-.152c0-2.97-.628-5.14-1.898-7-1.87-2.74-4.438-4.36-7.763-4.656-2.375-.213-4.572.38-6.522 1.753-2.86 2.012-4.4 4.807-4.71 8.272-.22 2.45.294 4.757 1.59 6.852 1.848 2.98 4.504 4.747 8.026 5.07 2.373.218 4.574-.377 6.52-1.753 3.173-2.24 4.653-5.38 4.756-8.54z"/></svg>