<svg xmlns="http://www.w3.org/2000/svg" width="64" height="64" viewBox="0 0 27.893 29.807"><g fill-rule="evenodd" clip-rule="evenodd"><path d="M7.566 29.807c-.847-.154-1.703-.274-2.54-.472a8.364 8.364 0 0 1-3.007-1.36C.033 26.537-.538 24.4.524 22.19c1.018-2.12 2.78-3.394 4.984-4.01 1.035-.29 2.15-.303 3.23-.425.295-.033.597-.004 1.042-.004-1.2-1.326-1.476-2.71-.766-4.232-.706-.06-1.39-.06-2.05-.187-2.728-.526-4.65-2.71-5.064-5.454C1.324 4.056 4.302.938 7.595.19c.294-.065.588-.127.883-.19h9.115c-.608.48-1.15 1.133-1.84 1.385-.674.245-1.497.077-2.253.092-.083 0-.167.01-.226.014.435.422.924.79 1.28 1.258 1.75 2.31 1.593 5.838-.343 8.05-.357.41-.784.76-1.17 1.146-.298.3-.616.59-.868.928-.543.726-.59 1.605-.043 2.322.492.646 1.092 1.212 1.654 1.805.134.14.3.254.457.374 2.273 1.736 3.055 4.09 2.574 6.814-.466 2.643-2.266 4.214-4.723 5.055-.81.276-1.677.38-2.518.564H7.566zm1.356-1.452c.327-.027.767-.045 1.203-.1 1.097-.138 2.13-.445 3.047-1.1 1.772-1.266 2.42-4.836.23-6.55-.75-.588-1.447-1.38-2.305-1.667-2.458-.82-4.755-.297-6.672 1.473-1.726 1.595-1.87 3.936-.422 5.796 1.214 1.562 2.89 2.135 4.92 2.15zM12.828 7.95c-.052-.48-.07-.97-.16-1.445-.342-1.765-1.075-3.325-2.54-4.44-1.862-1.42-3.964-.846-4.875 1.31-.597 1.416-.578 2.88-.224 4.336.414 1.712 1.2 3.22 2.71 4.232 1.677 1.123 3.474.648 4.418-1.132.474-.893.644-1.855.67-2.86zM27.893 7.475h-2.93v2.91H22.05V7.462h-2.927V4.484h2.9V1.528h2.914v2.94h2.957v3.007z"/></g></svg>