<svg xmlns="http://www.w3.org/2000/svg" width="64" height="64" viewBox="0 0 22.386 19"><g fill-rule="evenodd" clip-rule="evenodd"><path d="M22.386 15.325a.733.733 0 0 1-.336.287c-.165.074-.337.137-.507.202-.062.023-.126.04-.19.058l-.284.664c.1.177.207.352.3.537.073.148.125.306.123.478a.437.437 0 0 1-.122.317c-.046.048-.096.092-.14.142a.35.35 0 0 1-.336.117 1.337 1.337 0 0 1-.31-.084c-.15-.068-.294-.154-.438-.236-.07-.04-.14-.09-.207-.135l-.658.27c-.05.174-.086.344-.146.505a1.682 1.682 0 0 1-.192.347c-.096.137-.24.194-.406.206a.532.532 0 0 1-.512-.244 2.267 2.267 0 0 1-.264-.56c-.03-.087-.054-.174-.08-.256l-.662-.29a1.9 1.9 0 0 1-.777.426.497.497 0 0 1-.486-.108c-.006-.005-.012-.012-.02-.016-.236-.147-.265-.362-.2-.61.054-.2.14-.39.237-.573.042-.08.088-.16.13-.237l-.277-.646a5.56 5.56 0 0 0-.183-.07 2.238 2.238 0 0 1-.517-.242c-.26-.178-.352-.445-.25-.74a.574.574 0 0 1 .237-.28c.16-.108.34-.167.525-.22l.184-.05c.048-.12.09-.227.134-.333.042-.1.09-.196.145-.313-.036-.068-.08-.147-.12-.227-.104-.208-.2-.42-.236-.652-.03-.198.014-.36.184-.478a.67.67 0 0 0 .077-.065c.142-.13.307-.15.487-.103.178.047.34.13.493.23l.232.156.66-.283c.06-.155.108-.313.18-.462.06-.126.137-.246.22-.358a.39.39 0 0 1 .347-.162c.04.002.083.002.124 0 .175-.01.303.072.407.203.11.138.175.3.228.466.03.095.052.192.08.3.213.09.433.185.67.287l.16-.08c.17-.086.338-.177.512-.253.09-.04.19-.057.288-.073.167-.028.312.013.42.153.03.04.07.07.103.11a.448.448 0 0 1 .1.394 1.546 1.546 0 0 1-.193.484c-.076.127-.16.25-.25.39l.276.666c.055.014.118.028.18.045.12.034.24.064.358.104.2.066.37.175.5.345-.002.185-.002.368-.002.55zm-5.11-.214c.006.71.53 1.325 1.296 1.337a1.33 1.33 0 0 0 1.356-1.308c.015-.732-.588-1.327-1.328-1.334-.73-.006-1.308.568-1.324 1.305zM13.57 11.22c.205.267.382.538.527.827.142.283.256.575.288.894.034.334-.045.625-.296.86a5.62 5.62 0 0 0-.3.3c-.21.228-.472.29-.77.25a2.81 2.81 0 0 1-.716-.2 6.1 6.1 0 0 1-.86-.445l-.226-.137a6.8 6.8 0 0 1-1.415.572c.007.054.023.102.016.145-.086.45-.2.892-.423 1.295a2.68 2.68 0 0 1-.297.428.972.972 0 0 1-.768.35h-.3a.83.83 0 0 1-.562-.23 2.028 2.028 0 0 1-.38-.49c-.218-.374-.363-.78-.49-1.193-.032-.11-.072-.218-.11-.327-.1-.037-.2-.074-.302-.11a6.886 6.886 0 0 1-1.12-.517l.01.118c-.025.02-.056.05-.09.072a4.545 4.545 0 0 1-1.07.575c-.227.082-.46.136-.704.127a.938.938 0 0 1-.595-.22c-.12-.103-.24-.205-.362-.306a.684.684 0 0 1-.243-.5 1.91 1.91 0 0 1 .082-.663 5.57 5.57 0 0 1 .55-1.223c.048-.086.1-.17.157-.268-.104-.22-.217-.44-.314-.667-.094-.22-.17-.45-.26-.69-.052-.015-.113-.036-.176-.054a6.076 6.076 0 0 1-.983-.348 4.767 4.767 0 0 1-.56-.317 1.813 1.813 0 0 1-.314-.28.716.716 0 0 1-.194-.476C0 8.22 0 8.07.005 7.92a.89.89 0 0 1 .256-.578c.15-.16.33-.28.522-.378.388-.197.802-.313 1.226-.4l.21-.046c.092-.247.17-.483.266-.712.092-.22.2-.434.306-.656l-.142-.237A5.68 5.68 0 0 1 2.1 3.77a2.146 2.146 0 0 1-.128-.68c.003-.255.087-.47.295-.63.112-.085.217-.18.324-.272a.883.883 0 0 1 .57-.217c.21-.005.412.026.61.09.4.128.762.328 1.108.558l.26.174a7.063 7.063 0 0 1 1.378-.582c.028-.094.058-.188.085-.282.105-.36.23-.71.4-1.043.11-.215.238-.418.407-.594A.88.88 0 0 1 8.095 0c.09.003.183 0 .273.002.26.01.48.106.666.292.174.173.298.377.4.597.168.355.273.73.352 1.112.013.064.03.126.05.194.486.142.943.332 1.39.58.07-.042.142-.08.212-.123.326-.2.664-.377 1.022-.51.257-.094.52-.17.8-.164a.75.75 0 0 1 .575.246c.1.11.204.218.31.326.224.233.29.513.25.826-.026.198-.08.39-.153.575-.13.326-.3.627-.496.917-.05.076-.102.15-.16.236.108.23.225.457.324.69.096.23.173.466.263.71.156.034.318.066.48.105.33.082.65.192.95.355.17.09.326.2.46.34.14.146.25.315.268.52.02.206.02.415.007.62-.01.162-.095.3-.202.42a1.96 1.96 0 0 1-.51.395c-.367.213-.76.37-1.17.475-.217.055-.332.152-.392.375-.106.387-.29.743-.492 1.11zm-2.423-3.055c.02-1.5-1.27-2.937-2.998-2.934a2.916 2.916 0 0 0-2.924 2.94 2.946 2.946 0 0 0 2.926 2.968c1.67 0 3.01-1.41 2.995-2.973z"/></g></svg>