<svg xmlns="http://www.w3.org/2000/svg" width="64" height="64" viewBox="0 0 36.819 36.819"><path fill-rule="evenodd" clip-rule="evenodd" d="M21.484 36.82h-6.15c.004-.06.01-.12.01-.177V21.688c0-.063-.005-.127-.01-.212H.238c-.08 0-.157.005-.236.008v-6.15c.06.004.12.01.177.01 4.985.002 9.97.002 14.956 0 .064 0 .128-.005.213-.01v-.262V.234c0-.078-.006-.157-.01-.235h6.15c-.004.058-.01.117-.01.175V15.13c0 .065.005.13.01.215H36.583c.08 0 .157-.007.235-.01v6.148c-.047-.003-.092-.008-.138-.008H21.668c-.058 0-.115.006-.194.01V36.583c0 .08.007.158.01.236z"/></svg>