<svg xmlns="http://www.w3.org/2000/svg" width="64" height="64" viewBox="0 0 29.773 29.636"><path fill-rule="evenodd" clip-rule="evenodd" d="M29.773 23.393c-.138.488-.286.973-.413 1.464-.28 1.085-.868 1.944-1.762 2.632-1.4 1.077-2.97 1.795-4.692 2.07a6.67 6.67 0 0 1-2.664-.137c-2.702-.708-5.35-1.588-7.74-3.096-2.136-1.346-3.933-3.082-5.72-4.84C3.265 18.03 1.21 13.787.125 9.05-.16 7.796.072 6.5.514 5.264a11.5 11.5 0 0 1 1.72-3.15C3.185.875 4.505.358 5.993.16c.232-.03.464-.067.695-.11 1.055-.19 1.93.158 2.48 1.085a234.05 234.05 0 0 1 3.175 5.49c.652 1.17.476 2.143-.493 3.073a57.59 57.59 0 0 1-2.15 1.955c-.225.196-.23.34-.104.592.824 1.63 1.906 3.063 3.16 4.39 1.37 1.445 2.973 2.547 4.717 3.474.258.136.4.108.595-.106.696-.77 1.394-1.538 2.133-2.265.865-.852 1.816-.994 2.883-.404 1.705.943 3.4 1.905 5.06 2.923.603.368 1.09.92 1.63 1.39v1.743z"/></svg>