<svg xmlns="http://www.w3.org/2000/svg" width="64" height="64" viewBox="0 0 40.391 31.298"><g fill-rule="evenodd" clip-rule="evenodd"><path d="M0 31.298c.078-.412.154-.826.235-1.238.083-.418.075-.82-.055-1.238-.345-1.11.04-2.064.727-2.928a6.67 6.67 0 0 1 1.895-1.648c2.06-1.19 4.138-2.355 6.214-3.52 1.166-.656 2.45-1.016 3.706-1.45.2-.07.34-.345.267-.5-.06-.126-.106-.26-.18-.376-.897-1.436-1.512-3-2.087-4.58-.387-1.06-.61-2.148-.598-3.29a162.38 162.38 0 0 0-.03-4.413c-.022-1.23.33-2.354.925-3.406.852-1.503 2.162-2.345 3.864-2.593a10.825 10.825 0 0 1 3.144-.002c1.704.25 3 1.11 3.852 2.613.56.988.92 2.043.91 3.195-.02 1.822-.052 3.645-.062 5.467-.005.86-.243 1.664-.528 2.455-.594 1.648-1.275 3.26-2.216 4.75-.174.275-.063.574.22.68.13.05.254.123.388.156 1.862.44 3.546 1.292 5.186 2.245 1.272.738 2.547 1.47 3.817 2.21.91.534 1.77 1.13 2.453 1.956.553.673.888 1.41.854 2.308-.04 1.05-.038 2.1-.054 3.15H0z"/><path d="M32.2 19.25c.194.097.367.212.56.27 1.216.364 2.345.917 3.435 1.562.725.428 1.467.824 2.197 1.242.612.35 1.17.766 1.594 1.346.573.785.54 1.787-.106 2.512-.237.268-.524.465-.884.53-.975.18-1.954.163-2.93.036-.19-.023-.43-.14-.532-.29-.983-1.446-2.418-2.304-3.914-3.105-.927-.494-1.807-1.076-2.717-1.602-.907-.522-1.825-1.026-2.73-1.534.24-.61.787-.605 1.224-.787.178-.073.274-.356.19-.53a9.42 9.42 0 0 0-.186-.377c-1.7-3.266-1.476-3.72-1.562-7.074-.017-.644.143-1.263.392-1.843.405-.94 1.075-1.613 2.09-1.928 1.04-.323 2.053-.343 3.102-.03 1.02.305 1.718.94 2.134 1.88.283.64.474 1.32.45 2.04-.025.84-.03 1.682-.067 2.523-.052 1.14-.45 2.186-.887 3.225-.27.64-.765 1.18-.852 1.933z"/></g></svg>