<svg xmlns="http://www.w3.org/2000/svg" width="64" height="64" viewBox="0 0 38.455 40.128"><path fill-rule="evenodd" clip-rule="evenodd" d="M21.236 14.5c.726.823 1.328 1.554 1.98 2.24 4.14 4.344 8.29 8.68 12.436 13.018.564.59 1.168 1.15 1.678 1.786 1.855 2.31 1.352 5.917-1.034 7.638-1.757 1.266-4.04 1.273-5.71-.05-.636-.502-1.19-1.116-1.753-1.706-3.96-4.14-7.913-8.285-11.866-12.43-.847-.888-1.685-1.784-2.58-2.732-1.125.04-2.2.064-3.275.118C4.117 22.734-.312 16.208.017 11.274c.014-.195.256-.486.44-.53.228-.055.588.02.75.18a183.71 183.71 0 0 1 4.025 4.066c.636.663 1.39.845 2.23.642a75.187 75.187 0 0 0 3.948-1.055c.646-.193 1.256-.51 1.895-.775 1.01-2.146 1.294-4.464 1.917-6.68.15-.532-.087-1.07-.48-1.495-1.392-1.498-2.79-2.986-4.155-4.505-.147-.165-.204-.552-.114-.75.083-.184.414-.343.646-.357 1.237-.077 2.42.134 3.587.612 3.84 1.574 7.027 5.515 6.903 11.085-.018.812-.21 1.62-.374 2.788zm13.688 19.707c-.015-1.068-1.013-2.122-2.053-2.17-1.07-.047-2 .918-2.04 2.114-.036 1.196.834 2.124 1.985 2.117 1.104-.007 2.123-1.003 2.11-2.06z"/></svg>