<svg xmlns="http://www.w3.org/2000/svg" width="64" height="64" viewBox="0 0 24.366 24.419"><g fill-rule="evenodd" clip-rule="evenodd"><path d="M22.1 0c.075.03.147.064.223.09.235.076.44.2.614.376.33.337.665.67.998 1.004.397.398.502.878.388 1.415-.096.45-.337.82-.657 1.14l-1.8 1.805L6.24 21.504c-.084.085-.172.167-.272.264-.05-.028-.1-.045-.134-.08-1.01-1.01-2.02-2.022-3.028-3.036-.036-.037-.063-.083-.086-.116.006-.03.007-.043.012-.055a.148.148 0 0 1 .02-.033.746.746 0 0 1 .054-.06l.056-.06L18.71 2.422c.01-.01.02-.018.028-.028.01-.01.02-.02.027-.03s.02-.02.024-.032.01-.026.01-.04c0-.01-.004-.024-.007-.036-.02-.014-.04-.04-.062-.04-.295-.003-.59-.002-.926-.002-.1.097-.224.218-.347.342C15.38 4.636 13.307 6.72 11.23 8.8c-.096.096-.19.192-.29.282a.62.62 0 0 1-.446.16.445.445 0 0 1-.45-.468.634.634 0 0 1 .157-.406c.08-.093.166-.18.25-.265 2.237-2.246 4.475-4.49 6.71-6.737.077-.076.153-.152.232-.226a.604.604 0 0 1 .56-.166c.333.076.67.06 1.006.068.363.01.727.002 1.11.002l.307-.302c.332-.33.708-.578 1.173-.678.053-.01.1-.042.148-.064h.405zM1.98 19.247c.345.27 3.023 2.962 3.205 3.21-.015.022-.024.054-.045.063-.88.375-1.757.748-2.65 1.126l-.412-.358c-.366.14-.683.37-1.02.556-.342.188-.68.385-1.015.576-.08-.074-.03-.133 0-.186.292-.516.586-1.03.88-1.546.065-.116.127-.235.195-.36l-.27-.332c.358-.914.747-1.815 1.133-2.75z"/></g></svg>