<svg xmlns="http://www.w3.org/2000/svg" width="64" height="64" viewBox="0 0 34.522 36.204"><g fill-rule="evenodd" clip-rule="evenodd"><path d="M17.41 6.877h10.94c.562.002 1.123 0 1.683.018.79.027 1.03.254 1.054.977.014.42.012.842.012 1.262 0 7.152 0 14.307-.003 21.46 0 .56-.02 1.12-.032 1.683-.02.783-.225 1.53-.545 2.232-.438.96-1.21 1.532-2.272 1.645-.486.053-.98.047-1.47.047-5.75.004-11.5.002-17.252.002-.42 0-.842.004-1.26-.023-2.16-.144-4.016-1.66-4.556-3.753-.14-.54-.187-1.104-.25-1.658-.033-.276-.01-.562-.01-.84 0-7.015-.005-14.026 0-21.04.002-1.992.014-2.004 1.97-2.008 3.997-.01 7.994-.005 11.99-.005zM8.7 20.77c0 2.797-.003 5.596.005 8.395.002.486.027.98.095 1.46a.447.447 0 0 0 .412.4c.875.1 1.167-.132 1.196-.98.008-.21.01-.42.01-.63 0-5.805 0-11.61-.003-17.418 0-.348-.02-.7-.063-1.045-.017-.125-.112-.256-.2-.357-.176-.197-1.022-.23-1.19-.043-.09.1-.186.234-.194.357-.038.558-.062 1.116-.063 1.675-.007 2.728-.004 5.457-.004 8.185zm6.852.05c0-2.73.003-5.464-.002-8.194 0-.56-.02-1.12-.056-1.678-.008-.125-.1-.26-.184-.365-.15-.19-.987-.225-1.195-.043a.728.728 0 0 0-.216.35c-.05.203-.06.418-.06.627-.003 6.162-.002 12.324.002 18.486 0 .207.012.428.08.62.066.187.18.382.433.394.14.008.277.04.415.037.432-.008.706-.22.728-.574.026-.42.05-.838.052-1.258.004-2.802.002-5.602.002-8.403zm10.4 0c0-2.726.005-5.45 0-8.177-.003-.56-.035-1.115-.062-1.674-.01-.198-.35-.515-.578-.526-.205-.01-.42 0-.618.05-.116.028-.274.138-.3.24-.083.33-.156.675-.157 1.015-.01 5.938-.01 11.88-.004 17.82 0 .347.053.694.092 1.04.024.217.345.44.62.447.648.016.96-.23.983-.803.02-.56.023-1.117.024-1.678.003-2.583.002-5.17 0-7.755zm-6.967-.21c0 2.797-.003 5.594.002 8.39.002.487.027.978.065 1.464.01.127.097.256.172.37.152.226.952.32 1.17.126.1-.09.196-.22.217-.346a6.5 6.5 0 0 0 .098-1.04c.006-5.942.004-11.886 0-17.83 0-.276-.035-.556-.062-.833-.02-.226-.317-.458-.6-.478-.77-.055-.983.256-1.024.74-.035.416-.035.838-.036 1.258-.003 2.725 0 5.453 0 8.18zM17.21 5.135c-4.98 0-9.96.002-14.94-.004-.558 0-1.117-.036-1.676-.067-.265-.016-.532-.29-.547-.54-.02-.35-.045-.7-.047-1.05C-.007 1.74.007 1.72 1.746 1.715c2.385-.01 4.77 0 7.153-.008.35 0 .702-.025 1.044-.087a.495.495 0 0 0 .413-.41c.035-.207.054-.416.102-.62.084-.356.252-.522.542-.544.28-.02.56-.043.84-.043C15.486 0 19.133 0 22.78 0c.21 0 .42.008.63.02.406.02.623.19.748.592.04.135.05.277.087.412.14.486.292.645.662.658.49.018.98.027 1.47.027 2.104.003 4.208 0 6.312.005.42 0 .84.027 1.26.053.25.016.51.293.522.566.025.49.05.98.048 1.47-.008 1.192-.12 1.32-1.323 1.323-3.928.012-7.855.006-11.783.008H17.21z"/></g></svg>