<svg xmlns="http://www.w3.org/2000/svg" width="64" height="64" viewBox="0 0 39.28 39.303"><g fill-rule="evenodd" clip-rule="evenodd"><path d="M.002 19.734C-.156 8.816 8.975.018 19.594 0c10.51-.016 19.58 8.592 19.686 19.463.104 10.822-8.742 19.766-19.52 19.84C8.86 39.377-.084 30.398.003 19.733zm19.69-15.82C11.063 3.898 4.003 10.826 3.89 19.477c-.108 8.17 6.303 15.838 15.665 15.896 8.795.057 15.822-6.908 15.79-15.76-.03-9.224-7.504-15.664-15.654-15.7z"/><path d="M17.822 15.09v-6.3c.002-.28.013-.56.027-.84.02-.41.26-.71.61-.72a59.087 59.087 0 0 1 2.306-.004c.335.004.623.334.637.707.022.63.037 1.258.038 1.887.005 2.592 0 5.182.007 7.77 0 .49.036.98.065 1.468.015.244.297.49.57.508.42.023.838.05 1.258.053 1.75.005 3.5-.003 5.25.007.418.004.84.03 1.25.098.19.03.398.156.436.396.138.905.16 1.81-.025 2.708-.02.113-.164.227-.277.29a.876.876 0 0 1-.404.093c-3.642.005-7.282.005-10.922 0-.068 0-.137-.024-.206-.032-.262-.025-.542-.28-.556-.53-.027-.49-.06-.978-.062-1.466-.007-2.032-.003-4.06-.002-6.092z"/></g></svg>