<svg xmlns="http://www.w3.org/2000/svg" width="64" height="64" viewBox="0 0 33.3 31.737"><path fill-rule="evenodd" clip-rule="evenodd" d="M0 11.87c.138-.76.232-1.534.422-2.28C1.69 4.613 5.897.86 10.978.14c6.828-.97 13.016 3.232 14.534 9.927.718 3.17.188 6.183-1.43 9.002-.064.11-.13.22-.192.33-.006.01-.004.028.006-.055 1.052 1.022 2.066 2 3.07 2.986 1.887 1.86 3.77 3.718 5.646 5.587.634.632.846 1.404.566 2.262-.278.85-.89 1.363-1.773 1.52-.817.146-1.495-.14-2.076-.716-1.992-1.974-3.988-3.942-5.982-5.913-.373-.367-.75-.732-1.117-1.104-.415-.42-.823-.848-1.255-1.294a13.362 13.362 0 0 1-3.418 1.938 12.91 12.91 0 0 1-17.35-9.665c-.08-.428-.138-.86-.207-1.29V11.87zm3.97.857c0 4.882 3.99 8.848 8.927 8.835 5-.013 8.943-3.83 8.956-8.867.012-4.863-4.03-8.823-8.956-8.816-4.926.007-8.928 3.973-8.927 8.847z"/></svg>